<svg xmlns="http://www.w3.org/2000/svg" width="19" height="20" viewBox="0 0 19 20">
    <path fill="#062144" fill-rule="evenodd" d="M9.5.672c1.658 0 3.191.414 4.602 1.243a9.3 9.3 0 0 1 3.358 3.358 8.921 8.921 0 0 1 1.243 4.602 8.921 8.921 0 0 1-1.243 4.602 9.3 9.3 0 0 1-3.358 3.358A8.921 8.921 0 0 1 9.5 19.078a8.921 8.921 0 0 1-4.602-1.243 9.3 9.3 0 0 1-3.358-3.358A8.921 8.921 0 0 1 .297 9.875c0-1.658.414-3.191 1.243-4.602a9.3 9.3 0 0 1 3.358-3.358A8.921 8.921 0 0 1 9.5.672zm0 16.625a7.202 7.202 0 0 0 3.71-1.002 7.484 7.484 0 0 0 2.71-2.71 7.202 7.202 0 0 0 1.002-3.71 7.202 7.202 0 0 0-1.002-3.71 7.484 7.484 0 0 0-2.71-2.71A7.202 7.202 0 0 0 9.5 2.453a7.202 7.202 0 0 0-3.711 1.002 7.484 7.484 0 0 0-2.709 2.71 7.202 7.202 0 0 0-1.002 3.71c0 1.336.334 2.573 1.002 3.71a7.484 7.484 0 0 0 2.709 2.71A7.202 7.202 0 0 0 9.5 17.297zm-.854-6.16a.457.457 0 0 1-.185-.371V4.68a.43.43 0 0 1 .13-.316.43.43 0 0 1 .315-.13h1.188a.43.43 0 0 1 .315.13.43.43 0 0 1 .13.316v5.27l2.486 1.78a.406.406 0 0 1 .167.297.462.462 0 0 1-.092.334l-.668.965a.475.475 0 0 1-.297.186.402.402 0 0 1-.334-.074l-3.155-2.301z"/>
</svg>
