<svg xmlns="http://www.w3.org/2000/svg" width="14" height="15" viewBox="0 0 14 15">
    <g fill="none" fill-rule="evenodd">
        <path d="M-1 0h16v16H-1z"/>
        <path fill="#062144" d="M11.812 6c.365 0 .675.128.93.383s.383.565.383.93v6.124c0 .365-.128.675-.383.93a1.266 1.266 0 0 1-.93.383H2.187c-.364 0-.674-.128-.93-.383a1.266 1.266 0 0 1-.382-.93V7.313c0-.365.128-.675.383-.93S1.823 6 2.188 6h.874V4.688a3.8 3.8 0 0 1 .534-1.97A4.013 4.013 0 0 1 5.03 1.284 3.8 3.8 0 0 1 7 .75a3.8 3.8 0 0 1 1.969.533 3.98 3.98 0 0 1 1.435 1.45c.356.61.533 1.27.533 1.982V6h.875zM4.375 4.688V6h5.25V4.688c0-.73-.255-1.35-.766-1.86A2.531 2.531 0 0 0 7 2.063c-.73 0-1.349.255-1.86.765-.51.51-.765 1.13-.765 1.86zm7.437 8.75V7.312H2.187v6.124h9.625z"/>
    </g>
</svg>
