<svg xmlns="http://www.w3.org/2000/svg" width="19" height="20" viewBox="0 0 19 20">
    <path fill="#062144" fill-rule="evenodd" d="M14.25 9.281v1.188a.43.43 0 0 1-.13.315.43.43 0 0 1-.315.13h-3.266v3.266a.43.43 0 0 1-.13.315.43.43 0 0 1-.315.13H8.906a.43.43 0 0 1-.315-.13.43.43 0 0 1-.13-.315v-3.266H5.195a.43.43 0 0 1-.315-.13.43.43 0 0 1-.13-.315V9.28a.43.43 0 0 1 .13-.315.43.43 0 0 1 .315-.13h3.266V5.57a.43.43 0 0 1 .13-.315.43.43 0 0 1 .315-.13h1.188a.43.43 0 0 1 .315.13.43.43 0 0 1 .13.315v3.266h3.266a.43.43 0 0 1 .315.13.43.43 0 0 1 .13.315zm4.453.594a8.921 8.921 0 0 1-1.243 4.602 9.3 9.3 0 0 1-3.358 3.358A8.921 8.921 0 0 1 9.5 19.078a8.921 8.921 0 0 1-4.602-1.243 9.3 9.3 0 0 1-3.358-3.358A8.921 8.921 0 0 1 .297 9.875c0-1.658.414-3.191 1.243-4.602a9.3 9.3 0 0 1 3.358-3.358A8.921 8.921 0 0 1 9.5.672c1.658 0 3.191.414 4.602 1.243a9.3 9.3 0 0 1 3.358 3.358 8.921 8.921 0 0 1 1.243 4.602zm-1.781 0a7.202 7.202 0 0 0-1.002-3.71 7.484 7.484 0 0 0-2.71-2.71A7.202 7.202 0 0 0 9.5 2.453a7.202 7.202 0 0 0-3.711 1.002 7.484 7.484 0 0 0-2.709 2.71 7.202 7.202 0 0 0-1.002 3.71c0 1.336.334 2.573 1.002 3.71a7.484 7.484 0 0 0 2.709 2.71A7.202 7.202 0 0 0 9.5 17.297a7.202 7.202 0 0 0 3.71-1.002 7.484 7.484 0 0 0 2.71-2.71 7.202 7.202 0 0 0 1.002-3.71z"/>
</svg>
