<svg xmlns="http://www.w3.org/2000/svg" width="360" height="360" viewBox="0 0 360 360">
    <g fill="none" fill-rule="evenodd">
        <circle cx="180" cy="180" r="180" fill="#94B2D7" fill-rule="nonzero"/>
        <path fill="#062144" d="M238.937 181.516c-1.302 1.302-2.93 1.562-4.883.781-1.953-.781-2.93-2.213-2.93-4.297v-28.125H82.688c-1.302 0-2.408-.455-3.32-1.367-.911-.911-1.367-2.018-1.367-3.32v-9.375c0-1.302.456-2.41 1.367-3.32.912-.912 2.018-1.368 3.32-1.368h148.438V103c0-2.083.976-3.515 2.93-4.297 1.952-.78 3.58-.52 4.882.782l37.5 37.89c1.042.782 1.563 1.823 1.563 3.125s-.521 2.344-1.563 3.125l-37.5 37.89zm-159.375 37.11C78.521 217.843 78 216.801 78 215.5c0-1.302.52-2.344 1.562-3.125l37.5-37.89c1.302-1.303 2.93-1.563 4.883-.782 1.953.782 2.93 2.214 2.93 4.297v28.125h148.437c1.302 0 2.409.456 3.32 1.367.912.912 1.368 2.019 1.368 3.32v9.376c0 1.302-.456 2.408-1.368 3.32-.911.911-2.018 1.367-3.32 1.367H124.875V253c0 2.083-.977 3.516-2.93 4.297-1.953.781-3.58.52-4.883-.781l-37.5-37.89z"/>
    </g>
</svg>
