<?xml version="1.0" encoding="UTF-8"?>
<svg width="12px" height="13px" viewBox="0 0 12 13" version="1.1" xmlns="http://www.w3.org/2000/svg" xmlns:xlink="http://www.w3.org/1999/xlink">
    <!-- Generator: Sketch 52.6 (67491) - http://www.bohemiancoding.com/sketch -->
    <title>Send Timelock Icon</title>
    <desc>Created with Sketch.</desc>
    <g id="Symbols" stroke="none" stroke-width="1" fill="none" fill-rule="evenodd">
        <g id="Take-Swap" transform="translate(-341.000000, -37.000000)" fill="#6A6F75">
            <g id="Send-Time-Lock-Details" transform="translate(341.000000, 34.000000)">
                <path d="M5.99998569,3.68752459 C7.04685832,3.68752459 8.01560589,3.94924283 8.90622877,4.47267896 C9.79685164,4.9961151 10.5038813,5.70314478 11.0273175,6.59376766 C11.5507536,7.48439053 11.8124718,8.45313811 11.8124718,9.50001073 C11.8124718,10.5468834 11.5507536,11.5156309 11.0273175,12.4062538 C10.5038813,13.2968767 9.79685164,14.0039064 8.90622877,14.5273425 C8.01560589,15.0507786 7.04685832,15.3124969 5.99998569,15.3124969 C4.95311307,15.3124969 3.9843655,15.0507786 3.09374262,14.5273425 C2.20311975,14.0039064 1.49609006,13.2968767 0.972653931,12.4062538 C0.449217798,11.5156309 0.187499553,10.5468834 0.187499553,9.50001073 C0.187499553,8.45313811 0.449217798,7.48439053 0.972653931,6.59376766 C1.49609006,5.70314478 2.20311975,4.9961151 3.09374262,4.47267896 C3.9843655,3.94924283 4.95311307,3.68752459 5.99998569,3.68752459 Z M5.99998569,14.1874996 C6.84373368,14.1874996 7.6249817,13.9765626 8.34373011,13.5546886 C9.06247851,13.1328146 9.63278953,12.5625035 10.0546635,11.8437551 C10.4765375,11.1250067 10.6874745,10.3437587 10.6874745,9.50001073 C10.6874745,8.65626274 10.4765375,7.87501472 10.0546635,7.15626632 C9.63278953,6.43751791 9.06247851,5.86720689 8.34373011,5.4453329 C7.6249817,5.0234589 6.84373368,4.8125219 5.99998569,4.8125219 C5.15623771,4.8125219 4.37498969,5.0234589 3.65624128,5.4453329 C2.93749288,5.86720689 2.36718186,6.43751791 1.94530786,7.15626632 C1.52343387,7.87501472 1.31249687,8.65626274 1.31249687,9.50001073 C1.31249687,10.3437587 1.52343387,11.1250067 1.94530786,11.8437551 C2.36718186,12.5625035 2.93749288,13.1328146 3.65624128,13.5546886 C4.37498969,13.9765626 5.15623771,14.1874996 5.99998569,14.1874996 Z M5.46092448,10.2968838 C5.38279979,10.2343839 5.34373726,10.1562592 5.34373726,10.0625094 L5.34373726,6.21876855 C5.34373726,6.14064386 5.37108106,6.07423753 5.42576831,6.01955028 C5.48045556,5.96486303 5.54686189,5.93751922 5.62498659,5.93751922 L6.3749848,5.93751922 C6.4531095,5.93751922 6.51951583,5.96486303 6.57420308,6.01955028 C6.62889033,6.07423753 6.65623413,6.14064386 6.65623413,6.21876855 L6.65623413,9.54688562 L8.22654289,10.6718829 C8.28904286,10.7187578 8.32419902,10.7812578 8.33201138,10.8593825 C8.33982375,10.9375072 8.32029266,11.0078195 8.27341777,11.0703195 L7.85154378,11.679693 C7.80466889,11.742193 7.74216892,11.7812552 7.66404423,11.7968803 C7.58591953,11.8125053 7.5156072,11.7968803 7.45310723,11.7500054 L5.46092448,10.2968838 Z" id="Send-Timelock-Icon"></path>
            </g>
        </g>
    </g>
</svg>