<?xml version="1.0" encoding="UTF-8"?>
<svg width="9px" height="6px" viewBox="0 0 9 6" version="1.1" xmlns="http://www.w3.org/2000/svg" xmlns:xlink="http://www.w3.org/1999/xlink">
    <!-- Generator: Sketch 53.2 (72643) - https://sketchapp.com -->
    <title>Up</title>
    <desc>Created with Sketch.</desc>
    <g id="Experiments" stroke="none" stroke-width="1" fill="none" fill-rule="evenodd">
        <g id="5" transform="translate(-919.000000, -489.000000)" fill="#2B99FF" fill-rule="nonzero">
            <g id="Status-Copy-8" transform="translate(512.000000, 473.000000)">
                <path d="M411.621083,16.2343935 L415.667948,20.2539152 C415.722635,20.3268318 415.749979,20.4043054 415.749979,20.4863365 C415.749979,20.5683676 415.722635,20.6458412 415.667948,20.7187578 L415.121074,21.2656315 C415.048158,21.3203189 414.966127,21.3476626 414.874981,21.3476626 C414.783836,21.3476626 414.710919,21.3203189 414.656232,21.2656315 L411.37499,18.011733 L408.093747,21.2656315 C408.03906,21.3203189 407.966143,21.3476626 407.874998,21.3476626 C407.783852,21.3476626 407.701821,21.3203189 407.628905,21.2656315 L407.109375,20.7187578 C407.036458,20.6458412 407,20.5683676 407,20.4863365 C407,20.4043054 407.027344,20.3268318 407.082031,20.2539152 L411.15624,16.2343935 C411.210927,16.1797061 411.283844,16.1523625 411.37499,16.1523625 C411.466135,16.1523625 411.548166,16.1797061 411.621083,16.2343935 Z" id="Up"></path>
            </g>
        </g>
    </g>
</svg>