<svg xmlns="http://www.w3.org/2000/svg" width="14" height="14" viewBox="0 0 14 14">
    <path fill="#2B99FF" fill-rule="nonzero" d="M14 7c0 1.26-.315 2.427-.946 3.5a7.073 7.073 0 0 1-2.554 2.554A6.786 6.786 0 0 1 7 14a6.786 6.786 0 0 1-3.5-.946A7.073 7.073 0 0 1 .946 10.5 6.786 6.786 0 0 1 0 7c0-1.26.315-2.427.946-3.5A7.073 7.073 0 0 1 3.5.946 6.786 6.786 0 0 1 7 0c1.26 0 2.427.315 3.5.946A7.073 7.073 0 0 1 13.054 3.5C13.684 4.573 14 5.74 14 7zm-7.819 3.698l5.194-5.194a.376.376 0 0 0 .141-.31.376.376 0 0 0-.141-.31l-.621-.65a.446.446 0 0 0-.65 0L5.872 8.468 3.895 6.492a.446.446 0 0 0-.649 0l-.621.65a.376.376 0 0 0-.141.31c0 .131.047.235.141.31l2.935 2.936a.376.376 0 0 0 .311.14.376.376 0 0 0 .31-.14z"/>
</svg>
