<svg xmlns="http://www.w3.org/2000/svg" width="24" height="24" viewBox="0 0 24 24">
    <path fill="#78909C" fill-rule="nonzero" d="M12.305 16.429a.411.411 0 0 1-.305.142.411.411 0 0 1-.305-.142L6.72 11.143a.346.346 0 0 1-.136-.286c0-.119.034-.226.102-.321l.677-.715a.478.478 0 0 1 .305-.107c.113 0 .203.048.27.143l3.183 3.464V4.43c0-.12.04-.22.118-.304A.382.382 0 0 1 11.526 4h.948c.113 0 .209.042.288.125a.425.425 0 0 1 .118.304v8.892l3.182-3.464a.317.317 0 0 1 .271-.143c.113 0 .215.036.305.107l.643.715c.09.095.136.202.136.321a.398.398 0 0 1-.102.286l-5.01 5.286zm5.789 1.714c.113 0 .209.042.288.125a.425.425 0 0 1 .118.303v1c0 .12-.04.22-.118.304a.382.382 0 0 1-.288.125H5.906a.382.382 0 0 1-.288-.125.425.425 0 0 1-.118-.304v-1c0-.119.04-.22.118-.303a.382.382 0 0 1 .288-.125h12.188z"/>
</svg>
