<svg xmlns="http://www.w3.org/2000/svg" xmlns:xlink="http://www.w3.org/1999/xlink" width="22" height="18" viewBox="0 0 22 18">
    <defs>
        <path id="a" d="M51.594 27.563c.494 0 .915.173 1.261.52.347.345.52.766.52 1.26v13.063c0 .495-.173.916-.52 1.262-.346.346-.767.52-1.261.52H33.78c-.495 0-.915-.174-1.261-.52a1.718 1.718 0 0 1-.52-1.262V29.344c0-.495.173-.916.52-1.262.346-.346.766-.52 1.261-.52h17.813zm0 14.843V29.344H33.78v13.062h17.813zm-11.875-6.531c-.643 0-1.2-.235-1.67-.705s-.705-1.027-.705-1.67.235-1.2.705-1.67 1.027-.705 1.67-.705 1.2.235 1.67.705.705 1.027.705 1.67-.235 1.2-.705 1.67-1.027.705-1.67.705zm-3.34 4.75a.862.862 0 0 1-.575-.204.632.632 0 0 1-.242-.501v-.705c0-.594.242-1.101.724-1.522.483-.42 1.07-.63 1.763-.63.124 0 .284.037.482.11.396.125.792.186 1.188.186.396 0 .791-.061 1.187-.185.223-.074.384-.111.483-.111.692 0 1.28.21 1.762.63.483.42.724.928.724 1.522v.705c0 .198-.08.365-.241.5a.862.862 0 0 1-.575.205h-6.68zm8.98-2.375a.284.284 0 0 1-.204-.093.284.284 0 0 1-.093-.204v-.594c0-.074.031-.142.093-.204a.284.284 0 0 1 .204-.092h4.157c.074 0 .142.03.204.092s.092.13.092.204v.594c0 .074-.03.142-.092.204a.284.284 0 0 1-.204.093h-4.157zm0-2.375a.284.284 0 0 1-.204-.093.284.284 0 0 1-.093-.204v-.594c0-.074.031-.142.093-.204a.284.284 0 0 1 .204-.092h4.157c.074 0 .142.03.204.092s.092.13.092.204v.594c0 .074-.03.142-.092.204a.284.284 0 0 1-.204.093h-4.157zm0-2.375a.284.284 0 0 1-.204-.093.284.284 0 0 1-.093-.204v-.594c0-.074.031-.142.093-.204a.284.284 0 0 1 .204-.092h4.157c.074 0 .142.03.204.092s.092.13.092.204v.594c0 .074-.03.142-.092.204a.284.284 0 0 1-.204.093h-4.157z"/>
    </defs>
    <g fill="#062144" fill-rule="evenodd" transform="translate(-32 -27)">
        <use xlink:href="#a"/>
        <use xlink:href="#a"/>
    </g>
</svg>
