<svg xmlns="http://www.w3.org/2000/svg" width="360" height="360" viewBox="0 0 360 360">
    <g fill="none" fill-rule="evenodd">
        <circle cx="180" cy="180" r="180" fill="#94B2D7" fill-rule="nonzero"/>
        <path fill="#062144" d="M203 78c13.541 0 26.041 1.433 37.5 4.297 11.458 2.865 20.572 6.64 27.343 11.328C274.614 98.313 278 103.521 278 109.25v87.5c0 6.77-4.623 12.826-13.868 18.164-9.244 5.339-21.289 9.05-36.132 11.133v20.703c0 5.73-3.386 10.937-10.157 15.625-6.77 4.687-15.885 8.464-27.343 11.328C179.04 276.568 166.54 278 153 278c-13.542 0-26.042-1.432-37.5-4.297-11.458-2.864-20.573-6.64-27.344-11.328C81.386 257.687 78 252.479 78 246.75v-87.5c0-6.77 4.622-12.825 13.867-18.164 9.245-5.338 21.29-9.05 36.133-11.133V109.25c0-5.729 3.385-10.937 10.156-15.625 6.77-4.687 15.885-8.463 27.344-11.328C176.958 79.433 189.458 78 203 78zm6.25 167.188v-15.235c-7.032 3.386-15.43 5.99-25.196 7.813-9.765 1.823-20.117 2.734-31.054 2.734-10.938 0-21.29-.911-31.055-2.734s-18.164-4.427-25.195-7.813v15.235c2.604 3.125 8.333 6.12 17.187 8.984 11.459 3.385 24.48 5.078 39.063 5.078 14.583 0 27.604-1.693 39.062-5.078 8.854-2.865 14.584-5.86 17.188-8.984zm0-37.5V190.11c-7.032 4.166-15.43 7.356-25.196 9.57C174.29 201.893 163.937 203 153 203c-10.938 0-21.29-1.107-31.055-3.32-9.765-2.214-18.164-5.404-25.195-9.57v17.578c2.604 3.125 8.333 6.12 17.187 8.984 11.459 3.385 24.48 5.078 39.063 5.078 14.583 0 27.604-1.693 39.062-5.078 8.854-2.865 14.584-5.86 17.188-8.984zM153 184.25c15.625 0 28.906-1.823 39.843-5.469 10.938-3.645 16.407-8.072 16.407-13.28 0-5.21-5.47-9.636-16.407-13.282-10.937-3.646-24.218-5.469-39.843-5.469-15.625 0-28.906 1.823-39.844 5.469-10.937 3.646-16.406 8.073-16.406 13.281 0 5.209 5.469 9.636 16.406 13.281 10.938 3.646 24.219 5.47 39.844 5.47zm106.25 10.938v-15.235c-8.334 3.907-18.75 6.771-31.25 8.594v18.75c8.073-1.563 15.104-3.516 21.093-5.86 5.209-2.083 8.594-4.166 10.157-6.25zm0-37.5V140.11c-8.855 5.208-20.183 8.854-33.985 10.937 1.823 2.865 2.735 5.6 2.735 8.203v10.547c8.073-1.562 15.104-3.516 21.093-5.86 5.209-2.083 8.594-4.166 10.157-6.25zM203 134.25c15.625 0 28.906-1.823 39.843-5.468 10.938-3.646 16.407-8.073 16.407-13.282 0-5.208-5.47-9.635-16.407-13.28-10.937-3.647-24.218-5.47-39.843-5.47-15.625 0-28.906 1.823-39.844 5.47-10.937 3.645-16.406 8.007-16.406 13.085 0 5.078 5.078 9.44 15.234 13.086 13.021.52 24.74 2.344 35.156 5.469l1.563.39H203z"/>
    </g>
</svg>
