<?xml version="1.0" encoding="UTF-8"?>
<svg width="32px" height="32px" viewBox="0 0 32 32" version="1.1" xmlns="http://www.w3.org/2000/svg" xmlns:xlink="http://www.w3.org/1999/xlink">
    <!-- Generator: Sketch 52.6 (67491) - http://www.bohemiancoding.com/sketch -->
    <title>BTC LIGHT</title>
    <desc>Created with Sketch.</desc>
    <defs>
        <linearGradient x1="50%" y1="0%" x2="50%" y2="100%" id="linearGradient-1">
            <stop stop-color="#FBD249" offset="0%"></stop>
            <stop stop-color="#F5A623" offset="100%"></stop>
        </linearGradient>
    </defs>
    <g id="BTC-LIGHT" stroke="none" stroke-width="1" fill="none" fill-rule="evenodd">
        <circle id="Oval-Copy-5" stroke="#E4E9F0" fill-rule="nonzero" cx="16" cy="16" r="15.5"></circle>
        <path d="M20.9530965,15.4921649 C21.9166361,15.7004975 22.6197594,16.1041428 23.0624665,16.7030995 C23.5832984,17.3541398 23.7916316,18.2525752 23.687465,19.3984056 C23.5312154,20.7786104 22.9582999,21.7812124 21.9687191,22.4062109 C21.1093461,22.9270428 19.8202867,23.239542 18.1015408,23.3437086 L18.1015408,25.9999523 L16.1874829,25.9999523 L16.1874829,23.3827711 L14.7031114,23.3827711 L14.7031114,25.9999523 L12.7890535,25.9999523 L12.7890535,23.3437086 L9,23.3437086 L9.39062407,21.0780891 L9.78124814,21.0780891 C10.4062466,21.1041309 10.8098913,21.0911097 10.9921828,21.0390266 C11.252599,20.9609018 11.4088486,20.7655898 11.4609316,20.4530905 L11.4609316,11.9765483 C11.3828068,11.5598824 11.161453,11.2994667 10.7968707,11.1953001 C10.5624963,11.1171753 10.0677056,11.0911335 9.31249925,11.1171753 L9,11.1171753 L9,9.08593014 L10.1718722,9.12499255 C11.5520771,9.12499255 12.4244712,9.11197195 12.7890535,9.08593014 L12.7890535,6 L14.7031114,6 L14.7031114,9.04686774 L16.1874829,9.00780533 L16.1874829,6 L18.1015408,6 L18.1015408,9.08593014 C19.4296626,9.21613797 20.4452852,9.50259601 21.1484085,9.94530309 C22.0077815,10.466135 22.4765304,11.2473831 22.5546552,12.2890475 C22.7109048,13.7994608 22.1770517,14.8671664 20.9530965,15.4921649 Z M14.7421738,11.2734249 L14.7421738,15.023416 L15.0546731,15.023416 C16.1484205,15.0494578 16.9947728,14.9843536 17.5937295,14.828104 C18.6353939,14.5676877 19.1562258,14.0077934 19.1562258,13.1484205 C19.1562258,12.2890475 18.6484145,11.716132 17.6327919,11.4296746 C17.0598764,11.2734249 16.2135247,11.2083207 15.0937355,11.2343625 C14.911444,11.2604043 14.7942568,11.2734249 14.7421738,11.2734249 Z M14.7421738,21.0780891 L15.0937355,21.0780891 C16.4218573,21.1041309 17.4244593,21.0390266 18.1015408,20.882777 C19.325496,20.5702778 19.9374739,19.9452793 19.9374739,19.0077815 C19.9374739,18.0702837 19.3385172,17.4452852 18.1406032,17.132786 C17.4895629,16.9504945 16.4999821,16.8853909 15.1718603,16.9374739 L14.7421738,16.9374739 L14.7421738,21.0780891 Z" id="BTC" fill="url(#linearGradient-1)" fill-rule="nonzero"></path>
    </g>
</svg>