<?xml version="1.0" encoding="UTF-8"?>
<svg width="16px" height="15px" viewBox="0 0 16 15" version="1.1" xmlns="http://www.w3.org/2000/svg" xmlns:xlink="http://www.w3.org/1999/xlink">
    <!-- Generator: Sketch 53.1 (72631) - https://sketchapp.com -->
    <title>E</title>
    <desc>Created with Sketch.</desc>
    <g id="Experiments" stroke="none" stroke-width="1" fill="none" fill-rule="evenodd">
        <g id="Supply-User-Map" transform="translate(-1623.000000, -1599.000000)" fill="#062144" fill-rule="nonzero">
            <g id="Group-12" transform="translate(390.000000, 1103.000000)">
                <g id="Group-11" transform="translate(0.000000, 41.000000)">
                    <g id="Asset-Row" transform="translate(452.000000, 431.000000)">
                        <g id="Dropdown-Copy-17" transform="translate(773.000000, 16.000000)">
                            <path d="M18.9921613,18.1836005 L19.8671592,17.3086026 C19.9400758,17.2356859 20.0221069,17.2174571 20.1132524,17.2539152 C20.2043978,17.2903733 20.2499708,17.3632899 20.2499708,17.4726647 L20.2499708,21.437499 C20.2499708,21.8020813 20.1223668,22.1119767 19.8671592,22.3671842 C19.6119516,22.6223918 19.3020562,22.7499958 18.9374739,22.7499958 L9.31249687,22.7499958 C8.94791455,22.7499958 8.63801917,22.6223918 8.38281159,22.3671842 C8.127604,22.1119767 8,21.8020813 8,21.437499 L8,11.8125219 C8,11.4479396 8.127604,11.1380442 8.38281159,10.8828366 C8.63801917,10.627629 8.94791455,10.500025 9.31249687,10.500025 L16.8046665,10.500025 C16.895812,10.500025 16.9596142,10.545598 16.9960723,10.6367435 C17.0325304,10.7278889 17.0143016,10.80992 16.9413849,10.8828366 L16.066387,11.7578345 C16.0299289,11.7942926 15.984356,11.8125219 15.9296686,11.8125219 L9.31249687,11.8125219 L9.31249687,21.437499 L18.9374739,21.437499 L18.9374739,18.3203189 C18.9374739,18.2656315 18.9557032,18.2200586 18.9921613,18.1836005 Z M23.2851198,12.6601761 L16.0937307,19.8515652 L13.6327991,20.1250021 C13.2682167,20.1614602 12.9583214,20.0520855 12.7031138,19.7968779 C12.4479062,19.5416703 12.3385315,19.2317749 12.3749896,18.8671926 L12.6484264,16.406261 L19.8398155,9.21487185 C20.1497105,8.90497689 20.5279651,8.75002921 20.9745784,8.75002921 C21.4211918,8.75002921 21.7994464,8.90497689 22.1093414,9.21487185 L23.2851198,10.3906503 C23.5950148,10.7005453 23.7499624,11.0787998 23.7499624,11.5254132 C23.7499624,11.9720266 23.5950148,12.3502812 23.2851198,12.6601761 Z M20.578095,13.5078304 L18.9921613,11.9218966 L13.9062359,17.007822 L13.7148301,18.7851615 L15.4921696,18.5937557 L20.578095,13.5078304 Z M22.3554345,11.3203356 L21.1796561,10.1445571 C21.1249687,10.0898698 21.0566095,10.0625261 20.9745784,10.0625261 C20.8925474,10.0625261 20.8241882,10.0898698 20.7695008,10.1445571 L19.9218466,10.9922114 L21.5077803,12.5781451 L22.3554345,11.7304909 C22.4101219,11.6758035 22.4374656,11.6074443 22.4374656,11.5254132 C22.4374656,11.4433822 22.4101219,11.3750229 22.3554345,11.3203356 Z" id="E"></path>
                        </g>
                    </g>
                </g>
            </g>
        </g>
    </g>
</svg>