<svg xmlns="http://www.w3.org/2000/svg" width="78" height="78" viewBox="0 0 78 78">
    <path fill="#7ED321" fill-rule="evenodd" d="M77.75 39c0 6.98-1.745 13.438-5.235 19.375-3.49 5.938-8.203 10.651-14.14 14.14C52.437 76.006 45.979 77.75 39 77.75c-6.98 0-13.438-1.745-19.375-5.234-5.938-3.49-10.651-8.203-14.14-14.141C1.994 52.438.25 45.979.25 39c0-6.98 1.745-13.437 5.234-19.375 3.49-5.937 8.203-10.65 14.141-14.14C25.562 1.995 32.021.25 39 .25c6.98 0 13.437 1.745 19.375 5.235 5.937 3.49 10.65 8.203 14.14 14.14C76.005 25.563 77.75 32.021 77.75 39zM34.469 59.47l28.75-28.75c.52-.417.78-.99.78-1.719 0-.73-.26-1.302-.78-1.719l-3.438-3.593c-.52-.521-1.12-.782-1.797-.782-.677 0-1.276.26-1.797.782L32.75 47.125 21.812 36.188c-.52-.521-1.12-.782-1.796-.782-.678 0-1.276.26-1.797.782L14.78 39.78c-.52.417-.781.99-.781 1.72 0 .728.26 1.301.781 1.718l16.25 16.25c.417.52.99.781 1.719.781.73 0 1.302-.26 1.719-.781z"/>
</svg>
