<?xml version="1.0" encoding="UTF-8"?>
<svg width="118px" height="118px" viewBox="0 0 118 118" version="1.1" xmlns="http://www.w3.org/2000/svg" xmlns:xlink="http://www.w3.org/1999/xlink">
    <!-- Generator: Sketch 52.6 (67491) - http://www.bohemiancoding.com/sketch -->
    <title>Check-Circle</title>
    <desc>Created with Sketch.</desc>
    <g id="Latest" stroke="none" stroke-width="1" fill="none" fill-rule="evenodd">
        <g id="2.04-Take-Swap-Success!" transform="translate(-661.000000, -335.000000)" fill="#7ED321">
            <path d="M778.124718,394.000107 C778.124718,404.468834 775.507536,414.156309 770.273175,423.062538 C765.038813,431.968767 757.968516,439.039064 749.062288,444.273425 C740.156059,449.507786 730.468583,452.124969 719.999857,452.124969 C709.531131,452.124969 699.843655,449.507786 690.937426,444.273425 C682.031197,439.039064 674.960901,431.968767 669.726539,423.062538 C664.492178,414.156309 661.874996,404.468834 661.874996,394.000107 C661.874996,383.531381 664.492178,373.843905 669.726539,364.937677 C674.960901,356.031448 682.031197,348.961151 690.937426,343.72679 C699.843655,338.492428 709.531131,335.875246 719.999857,335.875246 C730.468583,335.875246 740.156059,338.492428 749.062288,343.72679 C757.968516,348.961151 765.038813,356.031448 770.273175,364.937677 C775.507536,373.843905 778.124718,383.531381 778.124718,394.000107 Z M713.202998,424.703159 L756.327895,381.578262 C757.109142,380.953262 757.499768,380.093892 757.499768,379.000143 C757.499768,377.906394 757.109142,377.047024 756.327895,376.422024 L751.171658,371.031412 C750.390411,370.250165 749.491973,369.85954 748.476352,369.85954 C747.46073,369.85954 746.562292,370.250165 745.781045,371.031412 L710.624879,406.187578 L694.218668,389.781367 C693.437421,389.00012 692.538984,388.609495 691.523362,388.609495 C690.507741,388.609495 689.609303,389.00012 688.828056,389.781367 L683.671819,395.171979 C682.890572,395.796979 682.499946,396.65635 682.499946,397.750098 C682.499946,398.843847 682.890572,399.703217 683.671819,400.328217 L708.04676,424.703159 C708.67176,425.484406 709.531131,425.875031 710.624879,425.875031 C711.718628,425.875031 712.577998,425.484406 713.202998,424.703159 Z" id="Check-Circle"></path>
        </g>
    </g>
</svg>