<svg xmlns="http://www.w3.org/2000/svg" width="32" height="32" viewBox="0 0 32 32">
    <g fill="none" fill-rule="evenodd">
        <rect width="32" height="32" fill="#E7FBEE" rx="16"/>
        <path fill="#0A9B3C" fill-rule="nonzero" d="M23.031 9.742a.422.422 0 0 1 .313-.117c.13 0 .247.04.351.117l1.094 1.133a.371.371 0 0 1 .156.313c0 .13-.052.247-.156.351L13.07 23.258a.422.422 0 0 1-.312.117.571.571 0 0 1-.352-.117l-5.195-5.235a.371.371 0 0 1-.156-.312c0-.13.052-.247.156-.352l1.094-1.093a.486.486 0 0 1 .351-.157c.13 0 .235.052.313.157l3.789 3.789L23.03 9.742z"/>
    </g>
</svg>
