<?xml version="1.0" encoding="UTF-8"?>
<svg width="9px" height="6px" viewBox="0 0 9 6" version="1.1" xmlns="http://www.w3.org/2000/svg" xmlns:xlink="http://www.w3.org/1999/xlink">
    <!-- Generator: Sketch 53.2 (72643) - https://sketchapp.com -->
    <title>Down</title>
    <desc>Created with Sketch.</desc>
    <g id="Experiments" stroke="none" stroke-width="1" fill="none" fill-rule="evenodd">
        <g id="4" transform="translate(-919.000000, -489.000000)" fill="#2B99FF" fill-rule="nonzero">
            <g id="Status-Copy-8" transform="translate(512.000000, 473.000000)">
                <path d="M411.15624,21.2656315 L407.109375,17.2461099 C407.036458,17.1731932 407,17.0957196 407,17.0136885 C407,16.9316575 407.027344,16.8541838 407.082031,16.7812672 L407.628905,16.2343935 C407.701821,16.1797061 407.783852,16.1523625 407.874998,16.1523625 C407.966143,16.1523625 408.03906,16.1797061 408.093747,16.2343935 L411.37499,19.488292 L414.656232,16.2343935 C414.710919,16.1797061 414.783836,16.1523625 414.874981,16.1523625 C414.966127,16.1523625 415.048158,16.1797061 415.121074,16.2343935 L415.667948,16.7812672 C415.722635,16.8541838 415.749979,16.9316575 415.749979,17.0136885 C415.749979,17.0957196 415.722635,17.1731932 415.667948,17.2461099 L411.621083,21.2656315 C411.548166,21.3203189 411.466135,21.3476626 411.37499,21.3476626 C411.283844,21.3476626 411.201813,21.3203189 411.128896,21.2656315 L411.15624,21.2656315 Z" id="Down"></path>
            </g>
        </g>
    </g>
</svg>