<svg xmlns="http://www.w3.org/2000/svg" width="19" height="16" viewBox="0 0 19 16">
    <path fill="#062144" fill-rule="evenodd" d="M15.289 8.209c-.124.124-.278.148-.464.074a.407.407 0 0 1-.278-.408V5.203H.445a.43.43 0 0 1-.315-.13.43.43 0 0 1-.13-.315v-.89a.43.43 0 0 1 .13-.316.43.43 0 0 1 .315-.13h14.102V.75c0-.198.093-.334.278-.408.186-.074.34-.05.464.074l3.563 3.6a.353.353 0 0 1 .148.297c0 .123-.05.222-.148.296l-3.563 3.6zM.149 11.734A.353.353 0 0 1 0 11.438c0-.124.05-.223.148-.297l3.563-3.6c.124-.124.278-.148.464-.074.185.074.278.21.278.408v2.672h14.102a.43.43 0 0 1 .315.13.43.43 0 0 1 .13.315v.89a.43.43 0 0 1-.13.316.43.43 0 0 1-.315.13H4.453V15a.407.407 0 0 1-.278.408c-.186.074-.34.05-.464-.074l-3.563-3.6z"/>
</svg>
