<svg xmlns="http://www.w3.org/2000/svg" width="24" height="24" viewBox="0 0 24 24">
    <path fill="#358DCC" fill-rule="nonzero" d="M21 9.562a.4.4 0 0 1-.14.313.478.478 0 0 1-.329.125H19.5a.4.4 0 0 1-.313-.14.478.478 0 0 1-.125-.329l.063-2.281-.063-.063-8.687 8.688a.389.389 0 0 1-.281.125.297.297 0 0 1-.25-.125l-.719-.719a.297.297 0 0 1-.125-.25c0-.104.042-.198.125-.281l8.687-8.688-.062-.062-2.281.062a.478.478 0 0 1-.328-.125A.4.4 0 0 1 15 5.5V4.469c0-.125.042-.235.125-.328A.4.4 0 0 1 15.437 4h5.125a.424.424 0 0 1 .438.437v5.125zm-4.625 1.75c.104-.125.234-.156.39-.093a.342.342 0 0 1 .235.343V18.5c0 .417-.146.77-.438 1.062A1.447 1.447 0 0 1 15.5 20h-11c-.417 0-.77-.146-1.063-.438A1.447 1.447 0 0 1 3 18.5v-11c0-.417.146-.77.437-1.063A1.447 1.447 0 0 1 4.5 6h8.875c.104 0 .187.042.25.125l.75.75c.125.104.156.234.094.39a.342.342 0 0 1-.344.235H4.687c-.041 0-.083.02-.125.062-.041.042-.062.084-.062.125v10.625c0 .042.02.084.062.125.042.042.084.063.125.063h10.625c.042 0 .084-.02.125-.063.042-.041.063-.083.063-.125v-6c0-.104.042-.187.125-.25l.75-.75z" opacity=".5"/>
</svg>
