<svg xmlns="http://www.w3.org/2000/svg" width="126" height="32" viewBox="0 0 126 32">
    <defs>
        <linearGradient id="a" x1="95.925%" x2="4.075%" y1="100%" y2="0%">
            <stop offset="0%" stop-color="#5BBBFF"/>
            <stop offset="100%" stop-color="#358DCC"/>
        </linearGradient>
    </defs>
    <g fill="none" fill-rule="evenodd">
        <path fill="#263238" d="M44.343 13.75h-4.206a.211.211 0 0 0-.22.22v2.25c0 .127.092.219.22.219h3.767c.274 0 .512.22.512.512v2.395c0 .275-.22.512-.512.512h-3.767a.211.211 0 0 0-.22.22V25.6c0 .274-.219.512-.511.512h-3.09a.511.511 0 0 1-.513-.512V10.843c0-.274.22-.512.512-.512h8.01c.274 0 .512.22.512.512v2.396c.018.292-.202.512-.494.512zM62.007 19.42c.018.822-.073 1.627-.238 2.431-.238 1.043-.823 1.994-1.719 2.853-1.28 1.207-2.999 1.81-5.138 1.81-2.176 0-3.877-.621-5.102-1.847a5.234 5.234 0 0 1-1.335-2.432 13.064 13.064 0 0 1-.256-2.797v-8.595c0-.274.22-.512.512-.512h3.09c.275 0 .513.22.513.512v8.028c0 .695.018 1.207.036 1.536.073 1.079.567 1.81 1.463 2.249.384.183.805.274 1.225.256 1.006 0 1.756-.347 2.268-1.042.384-.512.567-1.518.567-3v-8.027c0-.274.219-.512.512-.512h3.072c.274 0 .512.22.512.512l.018 8.576zM77.202 20.882c0 2.67-1.17 4.407-3.51 5.212a7.569 7.569 0 0 1-2.634.42 9.23 9.23 0 0 1-5.101-1.536.523.523 0 0 1-.183-.676l1.243-2.34a.497.497 0 0 1 .677-.22c.018.018.055.036.073.055 1.079.859 2.121 1.28 3.163 1.28.476.018.951-.11 1.353-.366a1.33 1.33 0 0 0 .64-1.189c0-.475-.237-.86-.713-1.17-.347-.238-.95-.475-1.792-.713-1.024-.293-1.664-.512-1.92-.622a4.37 4.37 0 0 1-1.06-.622c-.823-.694-1.244-1.737-1.244-3.145 0-1.463.44-2.67 1.299-3.639 1.024-1.133 2.377-1.7 4.077-1.7 1.573 0 3.109.366 4.535 1.042.256.128.366.42.256.677 0 0 0 .018-.018.018l-1.152 2.25a.513.513 0 0 1-.695.219c-.018 0-.037-.019-.037-.019a4.117 4.117 0 0 0-2.249-.731c-.42 0-.823.128-1.188.347a1.167 1.167 0 0 0-.585 1.024c0 .42.256.768.768 1.08.237.145.932.383 2.084.712 1.445.42 2.487 1.024 3.109 1.81.548.659.804 1.5.804 2.542zM80.731 10.331h4.114v15.781h-4.114z"/>
        <path fill="#263238" fill-rule="nonzero" d="M105.856 18.267a8.29 8.29 0 0 1-2.14 5.632c-1.627 1.847-3.821 2.762-6.6 2.762-2.78 0-4.974-.915-6.583-2.762a8.324 8.324 0 0 1-2.14-5.632 8.59 8.59 0 0 1 .585-3.017 8.444 8.444 0 0 1 1.536-2.633c1.628-1.847 3.822-2.761 6.601-2.761 2.78 0 4.974.914 6.602 2.761a8.196 8.196 0 0 1 2.139 5.65zm-4.242 0a4.31 4.31 0 0 0-1.06-2.889 4.489 4.489 0 0 0-6.328-.493 4.467 4.467 0 0 0-1.572 3.382c0 1.061.365 2.067 1.06 2.853a4.3 4.3 0 0 0 3.401 1.573c2.45.018 4.462-1.939 4.48-4.389.019-.018.019-.018.019-.037z"/>
        <path fill="#263238" d="M124.654 26.112h-3.347a.486.486 0 0 1-.402-.201l-7.003-8.96a.228.228 0 0 0-.311-.037.218.218 0 0 0-.092.165v9.015h-3.602a.511.511 0 0 1-.512-.512V10.843c0-.274.22-.512.512-.512h3.346c.165 0 .311.074.403.202l7.003 8.96a.228.228 0 0 0 .402-.147v-8.503c0-.274.22-.512.512-.512h3.09c.275 0 .513.22.513.512V25.6a.523.523 0 0 1-.512.512z"/>
        <path fill="url(#a)" d="M14.555 10.478c-4.882 7.479-7.88 17.865-9.051 21.394-.658-6.656 2.816-15.726 5.358-21.083-1.17.054-7.406.493-10.862 4.059 0 0 1.865-5.723 12.635-7.46l.037-.074C21.102-4.992 27.429 2.36 27.429 2.36c-3.84-.64-7.187 1.28-10.04 4.407 1.39-.055 10.387-.165 12.984 6.948 0 0-5.212-3.73-15.818-3.236zm6.09 8.576a3.918 3.918 0 0 0-3.914 3.913 3.918 3.918 0 0 0 3.914 3.913 3.918 3.918 0 0 0 3.913-3.913 3.906 3.906 0 0 0-3.913-3.913z"/>
    </g>
</svg>
