<svg xmlns="http://www.w3.org/2000/svg" width="14" height="15" viewBox="0 0 14 15">
    <g fill="none" fill-rule="evenodd">
        <path fill-rule="nonzero" d="M-1 0h16v16H-1z"/>
        <path fill="#062144" d="M6.535.941V.97c.31-.128.62-.128.93 0l5.687 2.133c.256.09.46.25.616.478.154.228.232.47.232.725v6.18c0 .236-.064.46-.191.67-.128.209-.31.368-.547.478l-5.688 2.87a1.268 1.268 0 0 1-.574.138 1.1 1.1 0 0 1-.574-.164L.738 11.66a1.4 1.4 0 0 1-.547-.506 1.267 1.267 0 0 1-.191-.67v-6.18c0-.273.077-.519.232-.738.155-.218.36-.382.616-.492L6.535.941zM7 2.171L1.312 4.333 7 6.63l5.687-2.324L7 2.172zM1.312 5.755v4.73L6.344 13V7.777L1.312 5.754zm6.344 7.219l5.031-2.516V5.754l-5.03 2.023v5.196z"/>
    </g>
</svg>
