<svg xmlns="http://www.w3.org/2000/svg" width="14" height="13" viewBox="0 0 14 13">
    <g fill="none" fill-rule="evenodd">
        <path d="M-1-1h16v16H-1z"/>
        <path fill="#062144" d="M12.25 2.813c.492 0 .907.168 1.244.505.337.338.506.752.506 1.245v6.562c0 .492-.169.907-.506 1.244a1.691 1.691 0 0 1-1.244.506H2.625c-.73 0-1.349-.255-1.86-.766A2.531 2.531 0 0 1 0 10.25v-7c0-.73.255-1.349.766-1.86.51-.51 1.13-.765 1.859-.765H10.5c.492 0 .907.169 1.244.506.337.337.506.752.506 1.244v.438zm.437 8.312V4.563a.426.426 0 0 0-.123-.315.426.426 0 0 0-.314-.123H3.062a.426.426 0 0 1-.314-.123.426.426 0 0 1-.123-.314c0-.128.041-.233.123-.315a.426.426 0 0 1 .314-.123h7.875v-.875a.426.426 0 0 0-.123-.314.426.426 0 0 0-.314-.123H2.625c-.365 0-.674.127-.93.382a1.266 1.266 0 0 0-.383.93v7c0 .365.128.674.383.93.256.255.565.383.93.383h9.625a.426.426 0 0 0 .314-.124.426.426 0 0 0 .123-.314zM10.5 6.75a.84.84 0 0 1 .615.26.84.84 0 0 1 .26.615.84.84 0 0 1-.26.615.84.84 0 0 1-.615.26.84.84 0 0 1-.615-.26.84.84 0 0 1-.26-.615.84.84 0 0 1 .26-.615.84.84 0 0 1 .615-.26z"/>
    </g>
</svg>
