<svg xmlns="http://www.w3.org/2000/svg" width="17" height="20" viewBox="0 0 17 20">
    <path fill="#062144" fill-rule="evenodd" d="M14.844 7.5c.495 0 .915.173 1.261.52.347.346.52.766.52 1.261v8.313c0 .495-.173.915-.52 1.261-.346.347-.766.52-1.261.52H1.78c-.495 0-.915-.173-1.261-.52A1.718 1.718 0 0 1 0 17.594V9.28c0-.495.173-.915.52-1.261.346-.347.766-.52 1.261-.52H2.97V5.719c0-.965.241-1.856.723-2.672a5.446 5.446 0 0 1 1.949-1.948A5.158 5.158 0 0 1 8.312.375c.965 0 1.856.241 2.672.724a5.401 5.401 0 0 1 1.949 1.966c.482.83.723 1.726.723 2.69V7.5h1.188zM4.75 5.719V7.5h7.125V5.719c0-.99-.346-1.83-1.04-2.524-.692-.692-1.533-1.039-2.523-1.039-.99 0-1.83.347-2.523 1.04-.693.692-1.039 1.533-1.039 2.523zm10.094 11.875V9.28H1.78v8.313h13.063z"/>
</svg>
