<svg xmlns="http://www.w3.org/2000/svg" width="16" height="15" viewBox="0 0 16 15">
    <g fill="none" fill-rule="evenodd">
        <path d="M0 0h16v16H0z"/>
        <path fill="#062144" d="M15 .75a.84.84 0 0 1 .615.26.84.84 0 0 1 .26.615v12.25a.84.84 0 0 1-.26.615.84.84 0 0 1-.615.26H1a.84.84 0 0 1-.615-.26.84.84 0 0 1-.26-.615V1.625a.84.84 0 0 1 .26-.615A.84.84 0 0 1 1 .75h14zm-.438 12.687V2.063H1.437v5.25H6.25a.62.62 0 0 1 .383.123.76.76 0 0 1 .246.314l.273.848 1.094-3.035a.76.76 0 0 1 .246-.315.6.6 0 0 1 .37-.123c.136 0 .264.036.382.11a.508.508 0 0 1 .233.3l.71 1.778h2.625c.128 0 .233.04.315.123a.426.426 0 0 1 .123.314v.438a.426.426 0 0 1-.123.314.426.426 0 0 1-.315.123H9.75a.695.695 0 0 1-.37-.11.508.508 0 0 1-.232-.3l-.246-.602-1.148 3.2a.76.76 0 0 1-.246.314.62.62 0 0 1-.383.123.62.62 0 0 1-.383-.123.76.76 0 0 1-.246-.314l-.71-2.188H1.436v4.812h13.125z"/>
    </g>
</svg>
