<svg xmlns="http://www.w3.org/2000/svg" width="24" height="24" viewBox="0 0 24 24">
    <g fill="none" fill-rule="evenodd">
        <rect width="24" height="24" fill="#F6F7F8" rx="5"/>
        <path fill="#78909C" fill-rule="nonzero" d="M14 4c1.083 0 2.083.115 3 .344.917.229 1.646.531 2.187.906.542.375.813.792.813 1.25v7c0 .542-.37 1.026-1.11 1.453-.739.427-1.703.724-2.89.89V17.5c0 .458-.27.875-.813 1.25-.541.375-1.27.677-2.187.906-.917.23-1.917.344-3 .344s-2.083-.115-3-.344c-.917-.229-1.646-.531-2.188-.906C4.271 18.375 4 17.958 4 17.5v-7c0-.542.37-1.026 1.11-1.453.739-.427 1.702-.724 2.89-.89V6.5c0-.458.27-.875.812-1.25s1.271-.677 2.188-.906c.917-.23 1.917-.344 3-.344zm.5 13.375v-1.219c-.563.271-1.234.48-2.016.625-.78.146-1.609.219-2.484.219s-1.703-.073-2.484-.219c-.782-.146-1.454-.354-2.016-.625v1.219c.208.25.667.49 1.375.719.917.27 1.958.406 3.125.406s2.208-.135 3.125-.406c.708-.23 1.167-.469 1.375-.719zm0-3v-1.406c-.563.333-1.234.588-2.016.765-.78.177-1.609.266-2.484.266s-1.703-.089-2.484-.266c-.782-.177-1.454-.432-2.016-.765v1.406c.208.25.667.49 1.375.719.917.27 1.958.406 3.125.406s2.208-.135 3.125-.406c.708-.23 1.167-.469 1.375-.719zM10 12.5c1.25 0 2.312-.146 3.187-.437.875-.292 1.313-.646 1.313-1.063 0-.417-.438-.77-1.313-1.062C12.312 9.646 11.25 9.5 10 9.5c-1.25 0-2.313.146-3.188.438-.875.291-1.312.645-1.312 1.062 0 .417.437.77 1.312 1.063.875.291 1.938.437 3.188.437zm8.5.875v-1.219c-.667.313-1.5.542-2.5.688v1.5a9.737 9.737 0 0 0 1.687-.469c.417-.167.688-.333.813-.5zm0-3V8.969c-.708.416-1.615.708-2.719.875.146.229.219.448.219.656v.844a9.737 9.737 0 0 0 1.687-.469c.417-.167.688-.333.813-.5zM14 8.5c1.25 0 2.312-.146 3.187-.437C18.062 7.77 18.5 7.417 18.5 7c0-.417-.438-.77-1.313-1.062C16.312 5.646 15.25 5.5 14 5.5c-1.25 0-2.313.146-3.188.438-.875.291-1.312.64-1.312 1.046 0 .407.406.756 1.219 1.047 1.041.042 1.979.188 2.812.438l.125.031H14z"/>
    </g>
</svg>
