<svg xmlns="http://www.w3.org/2000/svg" width="24" height="24" viewBox="0 0 24 24">
    <g fill="none" fill-rule="evenodd">
        <rect width="24" height="24" fill="#F6F7F8" rx="5"/>
        <path fill="#78909C" fill-rule="nonzero" d="M12 16.875a.848.848 0 0 1-.625-.25.848.848 0 0 1-.25-.625v-2c0-.25.083-.458.25-.625a.848.848 0 0 1 .625-.25c.25 0 .458.083.625.25.167.167.25.375.25.625v2c0 .25-.083.458-.25.625a.848.848 0 0 1-.625.25zm7-5.375v7c0 .417-.146.77-.438 1.062A1.447 1.447 0 0 1 17.5 20h-11c-.417 0-.77-.146-1.063-.438A1.447 1.447 0 0 1 5 18.5v-7c0-.417.146-.77.437-1.062A1.447 1.447 0 0 1 6.5 10h1V8.5c0-.812.203-1.562.61-2.25a4.586 4.586 0 0 1 1.64-1.64A4.343 4.343 0 0 1 12 4c.812 0 1.562.203 2.25.61a4.548 4.548 0 0 1 1.64 1.656c.407.698.61 1.453.61 2.265V10h1c.417 0 .77.146 1.062.438.292.291.438.645.438 1.062zM9 10h6V8.5c0-.833-.292-1.542-.875-2.125A2.893 2.893 0 0 0 12 5.5c-.833 0-1.542.292-2.125.875A2.893 2.893 0 0 0 9 8.5V10zm8.5 1.5h-11v7h11v-7z"/>
    </g>
</svg>
