<svg xmlns="http://www.w3.org/2000/svg" width="360" height="360" viewBox="0 0 360 360">
    <g fill="none" fill-rule="evenodd">
        <circle cx="180" cy="180" r="180" fill="#94B2D7" fill-rule="nonzero"/>
        <path fill="#062144" d="M271.25 90.5c5.208 0 9.635 1.823 13.28 5.47 3.647 3.645 5.47 8.072 5.47 13.28v137.5c0 5.208-1.823 9.635-5.47 13.281-3.645 3.646-8.072 5.469-13.28 5.469H83.75c-5.208 0-9.635-1.823-13.281-5.469C66.823 256.385 65 251.958 65 246.75v-137.5c0-5.208 1.823-9.635 5.469-13.28 3.646-3.647 8.073-5.47 13.281-5.47h187.5zm0 156.25v-137.5H83.75v137.5h187.5zm-125-68.75c-6.771 0-12.63-2.474-17.578-7.422-4.948-4.948-7.422-10.807-7.422-17.578 0-6.77 2.474-12.63 7.422-17.578 4.948-4.948 10.807-7.422 17.578-7.422 6.77 0 12.63 2.474 17.578 7.422 4.948 4.948 7.422 10.807 7.422 17.578 0 6.771-2.474 12.63-7.422 17.578C158.88 175.526 153.02 178 146.25 178zm-35.156 50c-2.344 0-4.362-.716-6.055-2.148-1.693-1.433-2.54-3.19-2.54-5.274v-7.422c0-6.25 2.54-11.588 7.618-16.015 5.078-4.427 11.263-6.64 18.555-6.64 1.302 0 2.995.39 5.078 1.171 4.166 1.302 8.333 1.953 12.5 1.953 4.166 0 8.333-.65 12.5-1.953 2.344-.781 4.036-1.172 5.078-1.172 7.292 0 13.476 2.214 18.555 6.64 5.078 4.428 7.617 9.766 7.617 16.016v7.422c0 2.084-.847 3.841-2.54 5.274-1.692 1.432-3.71 2.148-6.054 2.148h-70.312zm94.53-25c-.78 0-1.497-.325-2.148-.976-.65-.651-.976-1.368-.976-2.149v-6.25c0-.781.325-1.497.976-2.148s1.367-.977 2.149-.977h43.75c.78 0 1.497.326 2.148.977.651.65.977 1.367.977 2.148v6.25c0 .781-.326 1.498-.977 2.149-.651.65-1.367.976-2.148.976h-43.75zm0-25c-.78 0-1.497-.325-2.148-.976-.65-.651-.976-1.368-.976-2.149v-6.25c0-.781.325-1.497.976-2.148s1.367-.977 2.149-.977h43.75c.78 0 1.497.326 2.148.977.651.65.977 1.367.977 2.148v6.25c0 .781-.326 1.498-.977 2.149-.651.65-1.367.976-2.148.976h-43.75zm0-25c-.78 0-1.497-.325-2.148-.976-.65-.651-.976-1.368-.976-2.149v-6.25c0-.781.325-1.497.976-2.148s1.367-.977 2.149-.977h43.75c.78 0 1.497.326 2.148.977.651.65.977 1.367.977 2.148v6.25c0 .781-.326 1.498-.977 2.149-.651.65-1.367.976-2.148.976h-43.75z"/>
    </g>
</svg>
