<?xml version="1.0" encoding="UTF-8"?>
<svg width="10px" height="20px" viewBox="0 0 10 20" version="1.1" xmlns="http://www.w3.org/2000/svg" xmlns:xlink="http://www.w3.org/1999/xlink">
    <!-- Generator: Sketch 53 (72520) - https://sketchapp.com -->
    <title>Control / Sort / Static</title>
    <desc>Created with Sketch.</desc>
    <g id="Control-/-Sort-/-Static" stroke="none" stroke-width="1" fill="none" fill-rule="evenodd">
        <path d="M8.92185426,9.00001669 L1.484372,9.00001669 C1.276039,9.00001669 1.09895641,8.92710036 0.953123262,8.78126721 C0.807290117,8.63543407 0.734373783,8.45835147 0.734373783,8.25001848 C0.734373783,8.04168548 0.807290117,7.86460289 0.953123262,7.71876974 L4.6718644,4.00002861 C4.81769754,3.85419547 4.99478013,3.78127913 5.20311313,3.78127913 C5.41144612,3.78127913 5.58852872,3.85419547 5.73436186,4.00002861 L9.453103,7.71876974 C9.59893614,7.86460289 9.67185247,8.04168548 9.67185247,8.25001848 C9.67185247,8.45835147 9.59893614,8.63543407 9.453103,8.78126721 C9.30726985,8.92710036 9.13018726,9.00001669 8.92185426,9.00001669 Z" id="sort-up" fill="#E4E9F0"></path>
        <path d="M1.484372,11.0000119 L8.92185426,11.0000119 C9.13018726,11.0000119 9.30726985,11.0729283 9.453103,11.2187614 C9.59893614,11.3645945 9.67185247,11.5416771 9.67185247,11.7500101 C9.67185247,11.9583431 9.59893614,12.1354257 9.453103,12.2812589 L5.73436186,16 C5.58852872,16.1458331 5.41144612,16.2187495 5.20311313,16.2187495 C4.99478013,16.2187495 4.81769754,16.1458331 4.6718644,16 L0.953123262,12.2812589 C0.807290117,12.1354257 0.734373783,11.9583431 0.734373783,11.7500101 C0.734373783,11.5416771 0.807290117,11.3645945 0.953123262,11.2187614 C1.09895641,11.0729283 1.276039,11.0000119 1.484372,11.0000119 Z" id="sort-down" fill="#E4E9F0"></path>
    </g>
</svg>