<svg xmlns="http://www.w3.org/2000/svg" xmlns:xlink="http://www.w3.org/1999/xlink" width="24" height="24" viewBox="0 0 24 24">
    <defs>
        <linearGradient id="a" x1="132.957%" x2="0%" y1="139.974%" y2="0%">
            <stop offset="0%" stop-color="#ECEFF1"/>
            <stop offset="100%" stop-color="#FFF"/>
        </linearGradient>
        <path id="c" d="M14.73 10.658l-.433-1.577a.5.5 0 0 1 .706-.58l6.103 3.052a.5.5 0 0 1 0 .894L15.003 15.5a.5.5 0 0 1-.706-.58l.51-1.86a4 4 0 0 0 .085-.378C10.364 11.691 8 8.402 8 2.971 8 2.435 8.405 2 8.905 2s.904.435.904.97c0 4.247 1.585 6.767 4.921 7.688z"/>
        <filter id="b" width="381.3%" height="382.5%" x="-142.9%" y="-171.4%" filterUnits="objectBoundingBox">
            <feOffset dy="-4" in="SourceAlpha" result="shadowOffsetOuter1"/>
            <feGaussianBlur in="shadowOffsetOuter1" result="shadowBlurOuter1" stdDeviation="6"/>
            <feColorMatrix in="shadowBlurOuter1" values="0 0 0 0 0.149019608 0 0 0 0 0.196078431 0 0 0 0 0.219607843 0 0 0 0.12 0"/>
        </filter>
        <path id="e" d="M8.73 16.658l-.433-1.577a.5.5 0 0 1 .706-.58l6.103 3.052a.5.5 0 0 1 0 .894L9.003 21.5a.5.5 0 0 1-.706-.58l.51-1.86a4 4 0 0 0 .085-.378C4.364 17.691 2 14.402 2 8.971 2 8.435 2.405 8 2.905 8s.904.435.904.97c0 4.247 1.585 6.767 4.921 7.688z"/>
        <filter id="d" width="398.9%" height="395.2%" x="-149.5%" y="-177.1%" filterUnits="objectBoundingBox">
            <feOffset dy="-4" in="SourceAlpha" result="shadowOffsetOuter1"/>
            <feGaussianBlur in="shadowOffsetOuter1" result="shadowBlurOuter1" stdDeviation="6"/>
            <feColorMatrix in="shadowBlurOuter1" values="0 0 0 0 0.149019608 0 0 0 0 0.196078431 0 0 0 0 0.219607843 0 0 0 0.12 0"/>
        </filter>
    </defs>
    <g fill="none" fill-rule="evenodd">
        <rect width="10" height="10" x="2" y="2" fill="url(#a)" rx="5"/>
        <rect width="10" height="10" x="12" y="12" fill="url(#a)" rx="5"/>
        <g transform="rotate(180 15 9)">
            <use fill="#000" filter="url(#b)" xlink:href="#c"/>
            <use fill="#CFD8DC" xlink:href="#c"/>
        </g>
        <use fill="#000" filter="url(#d)" xlink:href="#e"/>
        <use fill="#CFD8DC" xlink:href="#e"/>
    </g>
</svg>
