<svg xmlns="http://www.w3.org/2000/svg" xmlns:xlink="http://www.w3.org/1999/xlink" width="22" height="15" viewBox="0 0 22 15">
    <defs>
        <path id="a" d="M46.844 34.094H38.53v3.562h8.313v-3.562zm.89-1.781c.248 0 .458.086.631.26.173.172.26.383.26.63v5.344a.859.859 0 0 1-.26.63.859.859 0 0 1-.63.26H37.64a.859.859 0 0 1-.631-.26.859.859 0 0 1-.26-.63v-5.344c0-.247.087-.458.26-.63a.859.859 0 0 1 .63-.26h10.094zm5.344 2.078c-.42 0-.773.142-1.058.426a1.436 1.436 0 0 0-.426 1.058c0 .42.142.773.426 1.058.285.284.638.426 1.058.426h.297v3.86c0 .495-.173.915-.52 1.261-.346.347-.767.52-1.261.52H33.78c-.495 0-.915-.173-1.261-.52A1.718 1.718 0 0 1 32 41.22v-3.86h.297c.42 0 .773-.142 1.057-.426.285-.285.427-.637.427-1.058 0-.42-.142-.773-.427-1.058a1.436 1.436 0 0 0-1.057-.426H32v-3.86c0-.495.173-.915.52-1.261.346-.347.766-.52 1.261-.52h17.813c.494 0 .915.173 1.261.52.347.346.52.766.52 1.261v3.86h-.297zm-1.484-1.41v-2.45H33.78v2.45c.545.272.977.667 1.3 1.187.32.52.481 1.089.481 1.707 0 .619-.16 1.188-.482 1.707-.322.52-.754.915-1.299 1.188v2.449h17.813v-2.45a3.164 3.164 0 0 1-1.3-1.187 3.181 3.181 0 0 1-.482-1.707c0-.618.161-1.187.483-1.707.321-.52.754-.915 1.299-1.188z"/>
    </defs>
    <g fill="#062144" fill-rule="evenodd" transform="translate(-32 -28)">
        <use xlink:href="#a"/>
        <use xlink:href="#a"/>
    </g>
</svg>
