<svg xmlns="http://www.w3.org/2000/svg" width="360" height="360" viewBox="0 0 360 360">
    <g fill="none" fill-rule="evenodd">
        <circle cx="180" cy="180" r="180" fill="#94B2D7" fill-rule="nonzero"/>
        <path fill="#062144" d="M178 81.125c17.448 0 33.593 4.362 48.437 13.086 14.844 8.724 26.628 20.508 35.352 35.352 8.724 14.844 13.086 30.99 13.086 48.437 0 17.448-4.362 33.594-13.086 48.438-8.724 14.843-20.508 26.627-35.352 35.351-14.844 8.724-30.99 13.086-48.437 13.086-17.448 0-33.594-4.362-48.438-13.086-14.843-8.724-26.627-20.508-35.351-35.351-8.724-14.844-13.086-30.99-13.086-48.438 0-17.448 4.362-33.593 13.086-48.437 8.724-14.844 20.508-26.628 35.351-35.352 14.844-8.724 30.99-13.086 48.438-13.086zm0 175c14.062 0 27.083-3.516 39.062-10.547 11.98-7.031 21.484-16.536 28.516-28.515 7.031-11.98 10.547-25 10.547-39.063 0-14.062-3.516-27.083-10.547-39.062-7.032-11.98-16.537-21.485-28.516-28.516-11.979-7.031-25-10.547-39.062-10.547-14.063 0-27.084 3.516-39.063 10.547-11.979 7.031-21.484 16.537-28.515 28.516-7.031 11.979-10.547 25-10.547 39.062 0 14.063 3.516 27.083 10.547 39.063 7.031 11.979 16.536 21.484 28.515 28.515 11.98 7.031 25 10.547 39.063 10.547zm-8.985-64.844c-1.302-1.041-1.953-2.343-1.953-3.906v-64.062c0-1.302.456-2.409 1.367-3.32.912-.912 2.019-1.368 3.32-1.368h12.5c1.303 0 2.41.456 3.321 1.368.912.911 1.367 2.018 1.367 3.32v55.468l26.172 18.75c1.042.782 1.628 1.823 1.758 3.125.13 1.302-.195 2.474-.977 3.516l-7.03 10.156c-.782 1.042-1.824 1.693-3.126 1.953-1.302.26-2.474 0-3.516-.78l-33.203-24.22z"/>
    </g>
</svg>
