<svg xmlns="http://www.w3.org/2000/svg" width="16" height="14" viewBox="0 0 16 14">
    <path fill="#FFD52B" fill-rule="nonzero" d="M15.838 12.032c.149.292.195.588.14.888-.056.301-.205.556-.445.766a1.27 1.27 0 0 1-.862.314H1.329a1.27 1.27 0 0 1-.862-.314c-.24-.21-.389-.465-.444-.766-.056-.3-.01-.596.139-.888L6.832.662c.167-.29.404-.487.71-.587.305-.1.61-.1.917 0 .305.1.542.296.708.588l6.671 11.37zM8 9.682c-.352 0-.653.123-.903.369a1.2 1.2 0 0 0-.376.888c0 .346.125.642.376.888.25.246.55.37.903.37.352 0 .653-.124.903-.37a1.2 1.2 0 0 0 .376-.888 1.2 1.2 0 0 0-.376-.888A1.242 1.242 0 0 0 8 9.68zm-1.223-4.51l.222 3.717c0 .073.033.141.098.205a.324.324 0 0 0 .236.096h1.334a.324.324 0 0 0 .236-.096.285.285 0 0 0 .098-.205l.222-3.717a.348.348 0 0 0-.097-.26.324.324 0 0 0-.237-.095H7.111a.324.324 0 0 0-.237.096.348.348 0 0 0-.097.26z"/>
</svg>
