<svg xmlns="http://www.w3.org/2000/svg" width="26" height="27" viewBox="0 0 26 27">
    <defs>
        <filter id="a" width="102%" height="106.1%" x="-1%" y="-3.1%" filterUnits="objectBoundingBox">
            <feOffset dy="2" in="SourceAlpha" result="shadowOffsetOuter1"/>
            <feGaussianBlur in="shadowOffsetOuter1" result="shadowBlurOuter1" stdDeviation=".5"/>
            <feColorMatrix in="shadowBlurOuter1" result="shadowMatrixOuter1" values="0 0 0 0 0.149019608 0 0 0 0 0.196078431 0 0 0 0 0.219607843 0 0 0 0.08 0"/>
            <feMerge>
                <feMergeNode in="shadowMatrixOuter1"/>
                <feMergeNode in="SourceGraphic"/>
            </feMerge>
        </filter>
    </defs>
    <g fill="none" fill-rule="evenodd" filter="url(#a)" transform="translate(1)">
        <rect width="24" height="24" fill="#F6F7F8" rx="5"/>
        <path fill="#78909C" fill-rule="nonzero" d="M11.73 4.107A.356.356 0 0 1 12 4c.113 0 .214.036.305.107l5.01 5.322a.398.398 0 0 1 .102.285.541.541 0 0 1-.102.322l-.677.678a.411.411 0 0 1-.305.143.317.317 0 0 1-.27-.143L12.88 7.25v8.893c0 .119-.04.22-.118.303a.382.382 0 0 1-.288.125h-.948a.382.382 0 0 1-.288-.125.425.425 0 0 1-.118-.303V7.25l-3.182 3.464a.317.317 0 0 1-.271.143.478.478 0 0 1-.305-.107l-.643-.714a.456.456 0 0 1-.136-.322c0-.119.045-.214.136-.285l5.01-5.322zm6.364 14.036c.113 0 .209.042.288.125a.425.425 0 0 1 .118.303v1c0 .12-.04.22-.118.304a.382.382 0 0 1-.288.125H5.906a.382.382 0 0 1-.288-.125.425.425 0 0 1-.118-.304v-1c0-.119.04-.22.118-.303a.382.382 0 0 1 .288-.125h12.188z"/>
    </g>
</svg>
