<?xml version="1.0" encoding="UTF-8"?>
<svg width="32px" height="32px" viewBox="0 0 32 32" version="1.1" xmlns="http://www.w3.org/2000/svg" xmlns:xlink="http://www.w3.org/1999/xlink">
    <!-- Generator: Sketch 57.1 (83088) - https://sketch.com -->
    <title>BAT Light</title>
    <desc>Created with Sketch.</desc>
    <g id="BAT-Light" stroke="none" stroke-width="1" fill="none" fill-rule="evenodd">
        <circle id="Oval-Copy-6" stroke="#E4E9F0" fill="#FFFFFF" fill-rule="nonzero" cx="16" cy="16" r="15.5"></circle>
        <g id="BAT_UI_Logo" transform="translate(5.000000, 5.000000)" fill-rule="nonzero">
            <polygon id="Path" fill="#FFFFFF" points="5.84509804 15.6027451 16.2605882 15.6027451 11.0517647 6.60431373"></polygon>
            <path d="M11.0539216,0 C10.8757365,0.000262152152 10.7112558,0.0956609841 10.622549,0.250196078 L0.28254902,18.1176471 C0.19316257,18.2724689 0.19316257,18.4632173 0.28254902,18.6180392 L6.59784314,14.9513725 L11.0539216,7.25137255 L11.0539216,0 Z" id="Path" fill="#FF4724"></path>
            <path d="M21.8231373,18.1176471 L11.4852941,0.250196078 C11.3965874,0.0956609841 11.2321066,0.000262152152 11.0539216,0 L11.0539216,7.25352941 L15.5078431,14.9535294 L21.8231373,18.6201961 C21.9133563,18.464827 21.9133563,18.2730161 21.8231373,18.1176471 Z" id="Path" fill="#9E1F63"></path>
            <path d="M21.8231373,18.6115686 L15.5078431,14.944902 L6.59784314,14.944902 L0.28254902,18.6115686 C0.371580918,18.7657796 0.535856376,18.8610594 0.713921569,18.8617647 L21.3896078,18.8617647 C21.568444,18.861828 21.7337192,18.7664453 21.8231373,18.6115686 L21.8231373,18.6115686 Z" id="Path" fill="#662D91"></path>
        </g>
    </g>
</svg>