<?xml version="1.0" encoding="UTF-8"?>
<svg width="32px" height="32px" viewBox="0 0 32 32" version="1.1" xmlns="http://www.w3.org/2000/svg" xmlns:xlink="http://www.w3.org/1999/xlink">
    <!-- Generator: Sketch 57.1 (83088) - https://sketch.com -->
    <title>DAO Light</title>
    <desc>Created with Sketch.</desc>
    <g id="DAO-Light" stroke="none" stroke-width="1" fill="none" fill-rule="evenodd">
        <circle id="Oval-Copy-6" stroke="#E4E9F0" fill="#FFFFFF" fill-rule="nonzero" cx="16" cy="16" r="15.5"></circle>
        <g id="download" transform="translate(5.000000, 9.000000)" fill="#231536" fill-rule="nonzero">
            <g id="logo-maker_1_">
                <g id="Group">
                    <g id="Path-3-Copy-4-_x2B_-Path-3-Copy-5-Copy_3_" transform="translate(0.000000, 0.000000)">
                        <g id="Shape_6_">
                            <path d="M9.34382022,14.2382022 C8.8741573,14.2382022 8.52808989,13.8921348 8.52808989,13.447191 L8.52808989,7.19325843 L1.77977528,2.54606742 L1.77977528,13.447191 C1.77977528,13.8921348 1.40898876,14.2382022 0.964044944,14.2382022 C0.519101124,14.2382022 0.148314607,13.8921348 0.148314607,13.447191 L0.148314607,1.01348315 C0.148314607,0.568539326 0.519101124,0.22247191 0.964044944,0.22247191 C1.13707865,0.22247191 1.31011236,0.271910112 1.43370787,0.370786517 L9.81348315,6.17977528 C10.0359551,6.32808989 10.1595506,6.5505618 10.1595506,6.82247191 L10.1595506,13.4719101 C10.1595506,13.8921348 9.78876404,14.2382022 9.34382022,14.2382022 Z" id="Path"></path>
                        </g>
                        <g id="Shape_5_" transform="translate(11.865169, 0.247191)">
                            <path d="M0.914606742,13.9910112 C0.44494382,13.9910112 0.0988764045,13.6449438 0.0988764045,13.2 L0.0988764045,6.5752809 C0.0988764045,6.32808989 0.247191011,6.08089888 0.44494382,5.93258427 L8.8247191,0.148314607 C8.97303371,0.0494382022 9.12134831,-7.10542736e-15 9.29438202,-7.10542736e-15 C9.68988764,-7.10542736e-15 10.1101124,0.296629213 10.1101124,0.791011236 L10.1101124,13.2247191 C10.1101124,13.6696629 9.73932584,14.0157303 9.29438202,14.0157303 C8.8494382,14.0157303 8.47865169,13.6696629 8.47865169,13.2247191 L8.47865169,2.32359551 L1.73033708,6.94606742 L1.73033708,13.2 C1.73033708,13.6449438 1.35955056,13.9910112 0.914606742,13.9910112 Z" id="Path"></path>
                        </g>
                    </g>
                </g>
            </g>
        </g>
    </g>
</svg>