<?xml version="1.0" encoding="UTF-8"?>
<svg width="32px" height="32px" viewBox="0 0 32 32" version="1.1" xmlns="http://www.w3.org/2000/svg" xmlns:xlink="http://www.w3.org/1999/xlink">
    <!-- Generator: Sketch 57.1 (83088) - https://sketch.com -->
    <title>OMG Light</title>
    <desc>Created with Sketch.</desc>
    <g id="OMG-Light" stroke="none" stroke-width="1" fill="none" fill-rule="evenodd">
        <circle id="Oval-Copy-6" stroke="#E4E9F0" fill="#FFFFFF" fill-rule="nonzero" cx="16" cy="16" r="15.5"></circle>
        <g id="download-1" transform="translate(5.000000, 5.000000)" fill="#1A53F0" fill-rule="nonzero">
            <g id="Group" transform="translate(0.658119, 0.459854)">
                <path d="M5.21042735,11.1553285 C2.37173094,11.1553285 0.0705128207,13.4779249 0.0705128207,16.3429927 C0.0705128207,19.2080605 2.37173094,21.5306569 5.21042735,21.5306569 C8.04912373,21.5306569 10.3503419,19.2080605 10.3503419,16.3429927 C10.3503419,13.4779249 8.04912373,11.1553285 5.21042735,11.1553285 Z M5.21042735,19.9611679 C3.23055733,19.9611679 1.62555555,18.3412557 1.62555555,16.3429927 C1.62555555,14.3447297 3.23055733,12.7248175 5.21042735,12.7248175 C7.1902974,12.7248175 8.79529913,14.3447297 8.79529913,16.3429927 C8.79322733,18.3405426 7.1895902,19.9595019 5.21042735,19.9621168 L5.21042735,19.9611679 Z" id="Shape"></path>
                <path d="M16.1888034,0.08919708 C14.1099021,0.08919708 12.2357027,1.35313089 11.4401416,3.29162816 C10.6445805,5.23012543 11.0843297,7.46143227 12.554335,8.94509387 C14.0243403,10.4287555 16.2351091,10.87259 18.1557635,10.0696381 C20.076418,9.26668627 21.3287179,7.37507567 21.3287179,5.27686131 C21.3287179,2.41179347 19.0274998,0.08919708 16.1888034,0.08919708 L16.1888034,0.08919708 Z M16.1888034,8.89503647 C14.2089334,8.89503647 12.6039316,7.27512427 12.6039316,5.27686131 C12.6039316,3.27859834 14.2089334,1.65868613 16.1888034,1.65868613 C18.1686735,1.65868613 19.7736752,3.27859834 19.7736752,5.27686131 C19.7710855,7.2740406 18.1675997,8.89242273 16.1888034,8.89503647 L16.1888034,8.89503647 Z" id="Shape"></path>
                <path d="M5.21042735,0.0891966969 L5.21042735,0.0891966969 C2.76309203,0.0882541813 0.654119756,1.82812461 0.168142255,4.24900649 C-0.317835245,6.6698884 0.953823793,9.10106793 3.20851765,10.0616483 C5.46321151,11.0222287 8.0762694,10.2460778 9.45600747,8.20596993 C10.8357455,6.16586205 10.5999025,3.42701629 8.89213673,1.65773723 L10.3503419,1.65773723 L10.3503419,0.0891966969 L5.21042735,0.0891966969 Z M8.79623933,5.27686131 C8.79572013,7.27500067 7.19048847,8.89443687 5.21074091,8.89408759 C3.23099331,8.8937382 1.62632284,7.2737356 1.62649587,5.27559619 C1.62666889,3.27745676 3.2316199,1.65773723 5.21136752,1.65773723 C7.1905304,1.6603521 8.79416753,3.27931144 8.79623933,5.27686131 L8.79623933,5.27686131 Z" id="Shape"></path>
            </g>
        </g>
    </g>
</svg>