<?xml version="1.0" encoding="UTF-8"?>
<svg width="32px" height="32px" viewBox="0 0 32 32" version="1.1" xmlns="http://www.w3.org/2000/svg" xmlns:xlink="http://www.w3.org/1999/xlink">
    <!-- Generator: Sketch 55.2 (78181) - https://sketchapp.com -->
    <title>Tether_Light</title>
    <desc>Created with Sketch.</desc>
    <g id="Tether_Light" stroke="none" stroke-width="1" fill="none" fill-rule="evenodd">
        <circle id="Oval-Copy-5" stroke="#E4E9F0" fill="#FFFFFF" fill-rule="nonzero" cx="16" cy="16" r="15.5"></circle>
        <path d="M16,4 C22.62712,4 28,9.37288 28,16 C28,22.62712 22.62688,28 16,28 C9.37312,28 4,22.62856 4,16 C4,9.37144 9.37216,4 16,4 Z M17.48104,14.40112 L17.48104,12.616 L21.5632,12.616 L21.5632,9.89608 L10.44736,9.89608 L10.44736,12.616 L14.53,12.616 L14.53,14.39968 C11.212,14.55208 8.7172,15.2092 8.7172,15.9964 C8.7172,16.7836 11.2132,17.44072 14.53,17.59408 L14.53,23.31208 L17.482,23.31208 L17.482,17.5936 C20.794,17.44072 23.28376,16.78408 23.28376,15.9976 C23.28376,15.21112 20.794,14.55448 17.482,14.4016 L17.48104,14.40112 Z M17.482,17.10928 L17.482,17.10784 C17.39872,17.11312 16.9708,17.1388 16.018,17.1388 C15.25624,17.1388 14.72032,17.1172 14.53144,17.10736 L14.53144,17.10976 C11.60008,16.97992 9.412,16.46944 9.412,15.85864 C9.412,15.24784 11.60032,14.73808 14.53144,14.608 L14.53144,16.6012 C14.72344,16.6144 15.27256,16.6468 16.03048,16.6468 C16.9408,16.6468 17.39848,16.60888 17.48248,16.6012 L17.48248,14.608 C20.40808,14.73832 22.59112,15.24928 22.59112,15.85792 C22.59112,16.46656 20.40712,16.97776 17.48248,17.10808 L17.482,17.10928 Z" id="Combined-Shape" fill="#53AE94" fill-rule="nonzero"></path>
    </g>
</svg>