<?xml version="1.0" encoding="UTF-8"?>
<svg width="32px" height="32px" viewBox="0 0 32 32" version="1.1" xmlns="http://www.w3.org/2000/svg" xmlns:xlink="http://www.w3.org/1999/xlink">
    <!-- Generator: Sketch 54.1 (76490) - https://sketchapp.com -->
    <title>USD Light</title>
    <desc>Created with Sketch.</desc>
    <g id="USD-Light" stroke="none" stroke-width="1" fill="none" fill-rule="evenodd">
        <circle id="Oval-Copy-6" stroke="#E4E9F0" fill="#FFFFFF" fill-rule="nonzero" cx="16" cy="16" r="15.5"></circle>
        <g id="USD-Coin-icon" transform="translate(4.000000, 4.000000)" fill-rule="nonzero">
            <circle id="Oval" fill="#2775CA" cx="12" cy="12" r="12"></circle>
            <path d="M9.77777778,20.0724954 C9.77777778,20.3486355 9.54074074,20.5051149 9.26419753,20.4222728 C5.43209877,19.2808938 2.66666667,15.9488033 2.66666667,12 C2.66666667,8.06040134 5.43209877,4.71910621 9.26419753,3.57772716 C9.55061728,3.49488514 9.77777778,3.65136452 9.77777778,3.92750461 L9.77777778,4.61785485 C9.77777778,4.80194824 9.62962963,5.01365565 9.44197531,5.07808834 C6.40987654,6.11821602 4.24691358,8.8335936 4.24691358,12 C4.24691358,15.1756111 6.40987654,17.881784 9.44197531,18.912707 C9.62962963,18.9771397 9.77777778,19.1888471 9.77777778,19.3729405 L9.77777778,20.0724954 Z" id="Path" fill="#FFFFFF"></path>
            <path d="M12.8080183,18.2777778 C12.8080183,18.4916667 12.6291372,18.6666667 12.4105047,18.6666667 L11.6154774,18.6666667 C11.3968449,18.6666667 11.2179638,18.4916667 11.2179638,18.2777778 L11.2179638,17.0527778 C9.4788416,16.8194444 8.63412511,15.8763889 8.40555477,14.5736111 C8.36580341,14.35 8.54468454,14.1555556 8.77325489,14.1555556 L9.67759842,14.1555556 C9.8664174,14.1555556 10.0254229,14.2916667 10.0651742,14.4666667 C10.2341175,15.2347222 10.6912582,15.8277778 12.082556,15.8277778 C13.1061536,15.8277778 13.8415538,15.2638889 13.8415538,14.4277778 C13.8415538,13.5916667 13.4142267,13.2708333 11.9036748,13.0277778 C9.67759842,12.7361111 8.62418727,12.075 8.62418727,10.3736111 C8.62418727,9.06111111 9.6477849,8.03055556 11.2179638,7.81666667 L11.2179638,6.61111111 C11.2179638,6.39722222 11.3968449,6.22222222 11.6154774,6.22222222 L12.4105047,6.22222222 C12.6291372,6.22222222 12.8080183,6.39722222 12.8080183,6.61111111 L12.8080183,7.84583333 C14.0899998,8.06944444 14.9049028,8.77916667 15.1732245,9.96527778 C15.2229137,10.1888889 15.0440326,10.3930556 14.8055244,10.3930556 L13.9707458,10.3930556 C13.7918646,10.3930556 13.642797,10.2763889 13.5931078,10.1111111 C13.3645374,9.3625 12.8179562,9.03194444 11.8639235,9.03194444 C10.8105123,9.03194444 10.263931,9.52777778 10.263931,10.2277778 C10.263931,10.9666667 10.5720041,11.3361111 12.1918722,11.5597222 C14.3781972,11.8513889 15.5111111,12.4638889 15.5111111,14.2819444 C15.5111111,15.6625 14.4577,16.7805556 12.8179562,17.0333333 L12.8179562,18.2777778 L12.8080183,18.2777778 Z" id="Path" fill="#FFFFFF"></path>
            <path d="M14.7358025,20.4222486 C14.4493827,20.5051811 14.2222222,20.3485309 14.2222222,20.0720895 L14.2222222,19.380986 C14.2222222,19.1782622 14.3506173,18.9847533 14.5580247,18.9202503 C17.5802469,17.8882023 19.7530864,15.1698616 19.7530864,12 C19.7530864,8.82092365 17.5901235,6.11179772 14.5580247,5.07974975 C14.3703704,5.01524675 14.2222222,4.80330833 14.2222222,4.61901405 L14.2222222,3.92791049 C14.2222222,3.65146907 14.4592593,3.49481893 14.7358025,3.57775136 C18.5679012,4.70194647 21.3333333,8.04688767 21.3333333,11.9907853 C21.3333333,15.9438976 18.5679012,19.2796241 14.7358025,20.4222486 Z" id="Path" fill="#FFFFFF"></path>
        </g>
    </g>
</svg>