<?xml version="1.0" encoding="UTF-8"?>
<svg width="32px" height="32px" viewBox="0 0 32 32" version="1.1" xmlns="http://www.w3.org/2000/svg" xmlns:xlink="http://www.w3.org/1999/xlink">
    <!-- Generator: Sketch 54.1 (76490) - https://sketchapp.com -->
    <title>1SG Light</title>
    <desc>Created with Sketch.</desc>
    <defs>
        <linearGradient x1="50%" y1="0%" x2="50%" y2="100%" id="linearGradient-1">
            <stop stop-color="#F8603F" offset="0%"></stop>
            <stop stop-color="#FA5F7D" offset="100%"></stop>
        </linearGradient>
    </defs>
    <g id="1SG-Light" stroke="none" stroke-width="1" fill="none" fill-rule="evenodd">
        <circle id="Oval-Copy-6" stroke="#E4E9F0" fill="#FFFFFF" fill-rule="nonzero" cx="16" cy="16" r="15.5"></circle>
        <path d="M14.9667193,17.6832221 C14.6095378,17.6832221 14.2723585,17.740133 13.9616755,17.8342947 L13.9616755,21.4331345 C14.2715792,21.5267788 14.6105769,21.5798094 14.9667193,21.5798094 C16.4286957,21.5798094 17.6140188,20.7072615 17.6140188,19.6313864 C17.6140188,18.5555113 16.4286957,17.6832221 14.9667193,17.6832221 M17.102457,23.2351153 L17.102457,24.3140946 L15.7864704,24.3140946 L15.7864704,23.441288 C15.7202295,23.4436162 15.6547678,23.4490486 15.5877476,23.4490486 C14.4777573,23.4490486 13.4633619,23.1264672 12.6840567,22.5940914 L12.6840567,20.6200584 L12.6853556,20.6200584 C12.88226,20.8652928 13.1529386,21.0730177 13.4706354,21.2339203 L13.4706354,18.0241444 L13.4706354,16.8316019 C14.0997944,16.561275 14.8211711,16.4076156 15.5877476,16.4076156 C15.61866,16.4076156 15.6485334,16.4109785 15.6794458,16.4114959 C13.5779197,16.1266825 11.9644983,14.4995476 11.9644983,12.5288776 C11.9644983,10.5248371 13.632471,8.87416171 15.7864704,8.63177292 L15.7864704,7.58564672 L17.102457,7.58564672 L17.102457,8.66126313 C17.9537179,8.79759065 18.7205542,9.15380129 19.3247754,9.66522351 L19.3247754,12.2011224 L19.2315186,12.2011224 C18.8192661,11.4796471 17.8344842,10.9710705 16.6842299,10.9710705 C15.1627665,10.9710705 13.929646,11.8593982 13.929646,12.9557095 C13.929646,14.0458123 15.1495184,14.9302598 16.6595519,14.9398312 L16.6595519,14.9400898 L16.6748783,14.9400898 L16.6842299,14.9400898 L16.6956597,14.9400898 L18.9621388,14.9400898 L19.8159974,14.9400898 L19.8159974,18.1206343 C19.5884403,17.7874467 19.2998376,17.4845254 18.9621388,17.220407 L18.9621388,15.664928 C18.2303712,16.1626399 17.3214417,16.4603875 16.3332828,16.4603875 C16.3291265,16.4603875 16.3254898,16.4598701 16.3213335,16.4598701 C18.428055,16.7371815 20.0355017,18.1824603 20.0355017,19.9285908 C20.0355017,21.4512166 18.8117329,22.7443879 17.102457,23.2351153 Z M16,4 L4,15.9497413 L16,27.8997413 L28,15.9497413 L16,4 Z" id="Shape" fill="url(#linearGradient-1)" fill-rule="nonzero"></path>
    </g>
</svg>