<?xml version="1.0" encoding="UTF-8"?>
<svg width="32px" height="32px" viewBox="0 0 32 32" version="1.1" xmlns="http://www.w3.org/2000/svg" xmlns:xlink="http://www.w3.org/1999/xlink">
    <!-- Generator: Sketch 54.1 (76490) - https://sketchapp.com -->
    <title>Eurs Light</title>
    <desc>Created with Sketch.</desc>
    <defs>
        <linearGradient x1="37.1393241%" y1="62.8606759%" x2="83.0648491%" y2="16.9351509%" id="linearGradient-1">
            <stop stop-color="#15BCFF" offset="0%"></stop>
            <stop stop-color="#B540EC" offset="100%"></stop>
        </linearGradient>
    </defs>
    <g id="Eurs-Light" stroke="none" stroke-width="1" fill="none" fill-rule="evenodd">
        <circle id="Oval-Copy-6" stroke="#E4E9F0" fill="#FFFFFF" fill-rule="nonzero" cx="16" cy="16" r="15.5"></circle>
        <g id="Group-12" transform="translate(4.000000, 4.000000)">
            <rect id="Rectangle" fill="url(#linearGradient-1)" x="0" y="0" width="24" height="24" rx="12"></rect>
            <path d="M14.9099812,0.355256959 C16.4868453,0.748033805 17.9403443,1.45271755 19.2011699,2.4 L18.72,2.4 C13.6831631,2.4 9.6,6.48316308 9.6,11.52 C9.6,16.5568369 13.6831631,20.64 18.72,20.64 L20.327707,20.64 C19.3088938,21.6222134 18.1167988,22.4259057 16.8017827,23.0007161 C10.8877847,22.5137399 6.24,17.5596441 6.24,11.52 C6.24,6.14135141 9.92612152,1.62364263 14.9099812,0.355256959 Z" id="Combined-Shape" fill="#FFFFFF"></path>
            <polygon id="Rectangle" fill="#FFFFFF" points="4.32 7.68 21.6 7.68 20.16 10.56 2.88 10.56"></polygon>
            <polygon id="Rectangle-Copy-13" fill="#FFFFFF" points="4.32 13.44 18.72 13.44 17.28 16.32 2.88 16.32"></polygon>
        </g>
    </g>
</svg>