<?xml version="1.0" encoding="UTF-8"?>
<svg width="32px" height="32px" viewBox="0 0 32 32" version="1.1" xmlns="http://www.w3.org/2000/svg" xmlns:xlink="http://www.w3.org/1999/xlink">
    <!-- Generator: Sketch 54.1 (76490) - https://sketchapp.com -->
    <title>Rockz Light</title>
    <desc>Created with Sketch.</desc>
    <g id="Rockz-Light" stroke="none" stroke-width="1" fill="none" fill-rule="evenodd">
        <circle id="Oval-Copy-6" stroke="#E4E9F0" fill="#FFFFFF" fill-rule="nonzero" cx="16" cy="16" r="15.5"></circle>
        <g id="logo.7750560d" transform="translate(8.000000, 4.000000)" fill-rule="nonzero">
            <polygon id="Path" fill="#E42421" points="7.41554717 0.0149433962 9.41909434 3.984 10.0684528 2.66083019 16.0378868 15.8766792 8.06490566 23.8283774 0.0921509434 15.8766792"></polygon>
            <polygon id="Path" fill="#FEFEFE" points="9.03690566 14.6431698 9.03690566 12.6742642 7.06822642 12.6742642 7.06822642 14.6431698 5.09932075 14.6431698 5.09932075 16.6118491 7.06822642 16.6118491 7.06822642 18.5807547 9.03690566 18.5807547 9.03690566 16.6120755 11.0058113 16.6120755 11.0058113 14.6433962"></polygon>
            <path d="M10.0113962,2.70724528 L9.39622642,4.04309434 L9.98535849,7.38316981 L10.0113962,2.70724528 Z M8.89516981,8.86007547 L6.80037736,5.33275472 L7.27924528,0.0149433962 L2.49464151,10.5056604 L0.905660377,13.9890566 L3.67290566,10.202717 L8.89516981,8.86007547 Z M12.4743396,8.12150943 L11.9805283,11.2609811 L15.9178868,15.8737358 L12.4743396,8.12150943 Z" id="Shape" fill="#AF2016"></path>
        </g>
    </g>
</svg>