<?xml version="1.0" encoding="UTF-8"?>
<svg width="32px" height="32px" viewBox="0 0 32 32" version="1.1" xmlns="http://www.w3.org/2000/svg" xmlns:xlink="http://www.w3.org/1999/xlink">
    <!-- Generator: Sketch 57.1 (83088) - https://sketch.com -->
    <title>ZRX Light</title>
    <desc>Created with Sketch.</desc>
    <g id="ZRX-Light" stroke="none" stroke-width="1" fill="none" fill-rule="evenodd">
        <circle id="Oval-Copy-6" stroke="#E4E9F0" fill="#FFFFFF" fill-rule="nonzero" cx="16" cy="16" r="15.5"></circle>
        <g id="0x" transform="translate(4.000000, 4.000000)" fill="#000000" fill-rule="nonzero">
            <path d="M5.04122809,15.1680281 L6.90422809,13.2408281 L4.58822809,10.1154281 L1.63922809,5.94302809 C0.562692731,7.77982047 -0.00324347731,9.87100862 1.39830572e-05,12.0000281 C1.39830572e-05,15.6600281 1.63922809,18.9372281 4.22402809,21.1380281 L7.96742809,18.4932281 C6.68662368,17.6965347 5.66886913,16.5402136 5.04122809,15.1686281 L5.04122809,15.1680281 Z M8.83202809,5.04122809 L10.7592281,6.90422809 L13.8846281,4.58822809 L18.0570281,1.63922809 C16.2202357,0.562692731 14.1290476,-0.00324347731 12.0000281,1.39830572e-05 C8.34002809,1.39830572e-05 5.06282809,1.63922809 2.86202809,4.22402809 L5.50682809,7.96742809 C6.30349404,6.68660048 7.45982299,5.66883901 8.83142809,5.04122809 L8.83202809,5.04122809 Z M17.0958281,10.7592281 L19.4118281,13.8846281 L22.3608281,18.0570281 C23.4373634,16.2202357 24.0032997,14.1290476 24.0000422,12.0000281 C24.0000422,8.34002809 22.3608281,5.06282809 19.7760281,2.86202809 L16.0320281,5.50682809 C17.3128325,6.30352143 18.330587,7.45984253 18.9582281,8.83142809 L17.0952281,10.7592281 L17.0958281,10.7592281 Z M21.1380281,19.7760281 L18.4932281,16.0326281 C17.6965621,17.3134557 16.5402332,18.3312172 15.1686281,18.9588281 L13.2408281,17.0958281 L10.1154281,19.4118281 L5.94302809,22.3608281 C7.77982047,23.4373634 9.87100862,24.0032997 12.0000281,24.0000422 C15.6600281,24.0000422 18.9372281,22.3608281 21.1380281,19.7760281 L21.1380281,19.7760281 Z" id="Shape"></path>
        </g>
    </g>
</svg>