<svg xmlns="http://www.w3.org/2000/svg" width="14" height="14" viewBox="0 0 14 14">
    <path fill="#78909C" fill-rule="nonzero" d="M10.613 6.548v.904a.327.327 0 0 1-.099.24.327.327 0 0 1-.24.098H7.79v2.484a.327.327 0 0 1-.098.24.327.327 0 0 1-.24.099h-.904a.327.327 0 0 1-.24-.099.327.327 0 0 1-.098-.24V7.79H3.726a.327.327 0 0 1-.24-.098.327.327 0 0 1-.099-.24v-.904c0-.094.033-.174.099-.24a.327.327 0 0 1 .24-.098H6.21V3.726c0-.094.033-.174.098-.24a.327.327 0 0 1 .24-.099h.904c.094 0 .174.033.24.099a.327.327 0 0 1 .098.24V6.21h2.484c.094 0 .174.033.24.098a.327.327 0 0 1 .099.24zM14 7c0 1.26-.315 2.427-.946 3.5a7.073 7.073 0 0 1-2.554 2.554A6.786 6.786 0 0 1 7 14a6.786 6.786 0 0 1-3.5-.946A7.073 7.073 0 0 1 .946 10.5 6.786 6.786 0 0 1 0 7c0-1.26.315-2.427.946-3.5A7.073 7.073 0 0 1 3.5.946 6.786 6.786 0 0 1 7 0c1.26 0 2.427.315 3.5.946A7.073 7.073 0 0 1 13.054 3.5C13.684 4.573 14 5.74 14 7zm-1.355 0a5.478 5.478 0 0 0-.762-2.823 5.693 5.693 0 0 0-2.06-2.06A5.478 5.478 0 0 0 7 1.355a5.478 5.478 0 0 0-2.823.762 5.693 5.693 0 0 0-2.06 2.06A5.478 5.478 0 0 0 1.355 7c0 1.016.254 1.957.762 2.823a5.693 5.693 0 0 0 2.06 2.06A5.478 5.478 0 0 0 7 12.645a5.478 5.478 0 0 0 2.823-.762 5.693 5.693 0 0 0 2.06-2.06A5.478 5.478 0 0 0 12.645 7z"/>
</svg>
