<?xml version="1.0" encoding="UTF-8"?>
<svg width="14px" height="15px" viewBox="0 0 14 15" version="1.1" xmlns="http://www.w3.org/2000/svg" xmlns:xlink="http://www.w3.org/1999/xlink">
    <!-- Generator: Sketch 52.6 (67491) - http://www.bohemiancoding.com/sketch -->
    <title>copy</title>
    <desc>Created with Sketch.</desc>
    <g id="Latest" stroke="none" stroke-width="1" fill="none" fill-rule="evenodd">
        <g id="1.00-Asset-Swap-Landing" transform="translate(-519.000000, -142.000000)" fill="#062144">
            <g id="Group-2" transform="translate(80.000000, 136.000000)">
                <path d="M451.742159,8.5547124 C451.997367,8.80991999 452.124971,9.11981536 452.124971,9.48439769 L452.124971,16.8125052 C452.124971,17.1770875 451.997367,17.4869829 451.742159,17.7421905 C451.486952,17.9973981 451.177056,18.1250021 450.812474,18.1250021 L448.624979,18.1250021 L448.624979,19.437499 C448.624979,19.8020813 448.497375,20.1119767 448.242168,20.3671842 C447.98696,20.6223918 447.677065,20.7499958 447.312482,20.7499958 L441.187497,20.7499958 C440.822915,20.7499958 440.513019,20.6223918 440.257812,20.3671842 C440.002604,20.1119767 439.875,19.8020813 439.875,19.437499 L439.875,10.6875198 C439.875,10.3229375 440.002604,10.0130421 440.257812,9.75783454 C440.513019,9.50262695 440.822915,9.37502295 441.187497,9.37502295 L443.374992,9.37502295 L443.374992,8.06252608 C443.374992,7.69794375 443.502596,7.38804838 443.757803,7.13284079 C444.013011,6.87763321 444.322906,6.75002921 444.687489,6.75002921 L449.390602,6.75002921 C449.755185,6.75002921 450.06508,6.87763321 450.320288,7.13284079 L451.742159,8.5547124 Z M447.14842,19.437499 C447.184878,19.437499 447.221337,19.4192697 447.257795,19.3828116 C447.294253,19.3463535 447.312482,19.309895 447.312482,19.2734368 L447.312482,18.1250021 L444.687489,18.1250021 C444.322906,18.1250021 444.013011,17.9973981 443.757803,17.7421905 C443.502596,17.4869829 443.374992,17.1770875 443.374992,16.8125052 L443.374992,10.6875198 L441.351559,10.6875198 C441.315101,10.6875198 441.278642,10.7057491 441.242184,10.7422072 C441.205726,10.7786653 441.187497,10.8151238 441.187497,10.8515819 L441.187497,19.2734368 C441.187497,19.309895 441.205726,19.3463535 441.242184,19.3828116 C441.278642,19.4192697 441.315101,19.437499 441.351559,19.437499 L447.14842,19.437499 Z M450.648412,16.8125052 C450.68487,16.8125052 450.721328,16.794276 450.757787,16.7578178 C450.794245,16.7213597 450.812474,16.6849012 450.812474,16.6484431 L450.812474,11.1250188 L448.40623,11.1250188 C448.223938,11.1250188 448.068991,11.061217 447.941387,10.933613 C447.813783,10.806009 447.749981,10.6510617 447.749981,10.4687703 L447.749981,8.06252608 L444.851551,8.06252608 C444.815093,8.06252608 444.778634,8.08075534 444.742176,8.11721345 C444.705718,8.15367155 444.687489,8.19013008 444.687489,8.22658819 L444.687489,16.6484431 C444.687489,16.6849012 444.705718,16.7213597 444.742176,16.7578178 C444.778634,16.794276 444.815093,16.8125052 444.851551,16.8125052 L450.648412,16.8125052 Z M450.812474,9.8125219 L450.812474,9.53908506 C450.812474,9.50262695 450.794245,9.46616842 450.757787,9.42971032 L449.44529,8.11721345 C449.408832,8.08075534 449.372373,8.06252608 449.335915,8.06252608 L449.062478,8.06252608 L449.062478,9.8125219 L450.812474,9.8125219 Z" id="copy"></path>
            </g>
        </g>
    </g>
</svg>