<?xml version="1.0" encoding="UTF-8"?>
<svg width="311px" height="54px" viewBox="0 0 311 54" version="1.1" xmlns="http://www.w3.org/2000/svg" xmlns:xlink="http://www.w3.org/1999/xlink">
    <!-- Generator: Sketch 53.2 (72643) - https://sketchapp.com -->
    <title>Group 2</title>
    <desc>Created with Sketch.</desc>
    <g id="Experiments" stroke="none" stroke-width="1" fill="none" fill-rule="evenodd">
        <g id="4" transform="translate(-565.000000, -195.000000)" fill-rule="nonzero">
            <g id="Group-2" transform="translate(565.647461, 195.000000)">
                <path d="M0,53 L0,44.46875 L2.40820312,44.46875 C3.15039434,44.46875 3.80663777,44.6328109 4.37695312,44.9609375 C4.94726848,45.2890641 5.38769376,45.7558563 5.69824219,46.3613281 C6.00879062,46.9667999 6.16601561,47.6621054 6.16992188,48.4472656 L6.16992188,48.9921875 C6.16992188,49.796879 6.01464999,50.5019501 5.70410156,51.1074219 C5.39355313,51.7128937 4.95019819,52.1777328 4.37402344,52.5019531 C3.79784868,52.8261735 3.12695695,52.9921875 2.36132812,53 L0,53 Z M1.125,45.3945312 L1.125,52.0800781 L2.30859375,52.0800781 C3.17578559,52.0800781 3.85058353,51.8105496 4.33300781,51.2714844 C4.8154321,50.7324192 5.05664062,49.9648487 5.05664062,48.96875 L5.05664062,48.4707031 C5.05664062,47.5019483 4.82910384,46.7490261 4.37402344,46.2119141 C3.91894304,45.674802 3.27344168,45.4023438 2.4375,45.3945312 L1.125,45.3945312 Z M10.3300781,53.1171875 C9.47069883,53.1171875 8.77148707,52.8349638 8.23242188,52.2705078 C7.69335668,51.7060519 7.42382812,50.9511766 7.42382812,50.0058594 L7.42382812,49.8066406 C7.42382812,49.1777312 7.54394411,48.6162134 7.78417969,48.1220703 C8.02441526,47.6279272 8.3603494,47.2412123 8.79199219,46.9619141 C9.22363497,46.6826158 9.69140373,46.5429688 10.1953125,46.5429688 C11.0195354,46.5429688 11.660154,46.8144504 12.1171875,47.3574219 C12.574221,47.9003933 12.8027344,48.6777293 12.8027344,49.6894531 L12.8027344,50.140625 L8.5078125,50.140625 C8.52343758,50.7656281 8.70605294,51.2705059 9.05566406,51.6552734 C9.40527519,52.040041 9.84960668,52.2324219 10.3886719,52.2324219 C10.7714863,52.2324219 11.0957018,52.1542977 11.3613281,51.9980469 C11.6269545,51.8417961 11.859374,51.6347669 12.0585938,51.3769531 L12.7207031,51.8925781 C12.1894505,52.7089885 11.3925834,53.1171875 10.3300781,53.1171875 Z M10.1953125,47.4335938 C9.75781031,47.4335938 9.39062648,47.5927718 9.09375,47.9111328 C8.79687352,48.2294938 8.6132816,48.6757784 8.54296875,49.25 L11.71875,49.25 L11.71875,49.1679688 C11.6874998,48.6171847 11.5390638,48.1904312 11.2734375,47.8876953 C11.0078112,47.5849594 10.6484398,47.4335938 10.1953125,47.4335938 Z M15.5273438,45.125 L15.5273438,46.6601562 L16.7109375,46.6601562 L16.7109375,47.4980469 L15.5273438,47.4980469 L15.5273438,51.4296875 C15.5273438,51.683595 15.5800776,51.8740228 15.6855469,52.0009766 C15.7910162,52.1279303 15.9707019,52.1914062 16.2246094,52.1914062 C16.34961,52.1914062 16.5214833,52.167969 16.7402344,52.1210938 L16.7402344,53 C16.4550767,53.0781254 16.1777357,53.1171875 15.9082031,53.1171875 C15.4238257,53.1171875 15.058595,52.9707046 14.8125,52.6777344 C14.566405,52.3847642 14.4433594,51.9687527 14.4433594,51.4296875 L14.4433594,47.4980469 L13.2890625,47.4980469 L13.2890625,46.6601562 L14.4433594,46.6601562 L14.4433594,45.125 L15.5273438,45.125 Z M21.890625,53 C21.8281247,52.8749994 21.7773439,52.6523454 21.7382812,52.3320312 C21.2343725,52.8554714 20.632816,53.1171875 19.9335938,53.1171875 C19.3085906,53.1171875 18.7959004,52.9404315 18.3955078,52.5869141 C17.9951152,52.2333967 17.7949219,51.785159 17.7949219,51.2421875 C17.7949219,50.5820279 18.0458959,50.0693378 18.5478516,49.7041016 C19.0498072,49.3388654 19.7558548,49.15625 20.6660156,49.15625 L21.7207031,49.15625 L21.7207031,48.6582031 C21.7207031,48.279295 21.607423,47.9775402 21.3808594,47.7529297 C21.1542957,47.5283192 20.8203147,47.4160156 20.3789062,47.4160156 C19.9921856,47.4160156 19.6679701,47.5136709 19.40625,47.7089844 C19.1445299,47.9042979 19.0136719,48.1406236 19.0136719,48.4179688 L17.9238281,48.4179688 C17.9238281,48.1015609 18.0361317,47.7958999 18.2607422,47.5009766 C18.4853527,47.2060532 18.7900371,46.9726571 19.1748047,46.8007812 C19.5595722,46.6289054 19.9824196,46.5429688 20.4433594,46.5429688 C21.1738318,46.5429688 21.7460917,46.7255841 22.1601562,47.0908203 C22.5742208,47.4560565 22.7890624,47.9589812 22.8046875,48.5996094 L22.8046875,51.5175781 C22.8046875,52.0996123 22.8789055,52.5624983 23.0273438,52.90625 L23.0273438,53 L21.890625,53 Z M20.0917969,52.1738281 C20.4316423,52.1738281 20.7539047,52.0859384 21.0585938,51.9101562 C21.3632828,51.7343741 21.5839837,51.5058608 21.7207031,51.2246094 L21.7207031,49.9238281 L20.8710938,49.9238281 C19.5429621,49.9238281 18.8789062,50.3124961 18.8789062,51.0898438 C18.8789062,51.4296892 18.9921864,51.6953115 19.21875,51.8867188 C19.4453136,52.078126 19.7363263,52.1738281 20.0917969,52.1738281 Z M25.6816406,53 L24.5976562,53 L24.5976562,46.6601562 L25.6816406,46.6601562 L25.6816406,53 Z M24.5097656,44.9785156 C24.5097656,44.8027335 24.563476,44.6542975 24.6708984,44.5332031 C24.7783208,44.4121088 24.9374989,44.3515625 25.1484375,44.3515625 C25.3593761,44.3515625 25.5195307,44.4121088 25.6289062,44.5332031 C25.7382818,44.6542975 25.7929688,44.8027335 25.7929688,44.9785156 C25.7929688,45.1542978 25.7382818,45.3007807 25.6289062,45.4179688 C25.5195307,45.5351568 25.3593761,45.59375 25.1484375,45.59375 C24.9374989,45.59375 24.7783208,45.5351568 24.6708984,45.4179688 C24.563476,45.3007807 24.5097656,45.1542978 24.5097656,44.9785156 Z M28.59375,53 L27.5097656,53 L27.5097656,44 L28.59375,44 L28.59375,53 Z M34.0195312,51.3183594 C34.0195312,51.0253892 33.9091808,50.7978524 33.6884766,50.6357422 C33.4677723,50.473632 33.0830106,50.333985 32.5341797,50.2167969 C31.9853488,50.0996088 31.5498063,49.9589852 31.2275391,49.7949219 C30.9052718,49.6308586 30.666993,49.435548 30.5126953,49.2089844 C30.3583977,48.9824207 30.28125,48.7128922 30.28125,48.4003906 C30.28125,47.8808568 30.5009744,47.441408 30.9404297,47.0820312 C31.379885,46.7226545 31.9414028,46.5429688 32.625,46.5429688 C33.3437536,46.5429688 33.9267556,46.7285138 34.3740234,47.0996094 C34.8212913,47.470705 35.0449219,47.9453096 35.0449219,48.5234375 L33.9550781,48.5234375 C33.9550781,48.226561 33.8291028,47.9707042 33.5771484,47.7558594 C33.3251941,47.5410146 33.0078144,47.4335938 32.625,47.4335938 C32.2304668,47.4335938 31.9218761,47.5195304 31.6992188,47.6914062 C31.4765614,47.8632821 31.3652344,48.0878892 31.3652344,48.3652344 C31.3652344,48.6269544 31.468749,48.8242181 31.6757812,48.9570312 C31.8828135,49.0898444 32.2568332,49.2167963 32.7978516,49.3378906 C33.3388699,49.458985 33.7773421,49.6035148 34.1132812,49.7714844 C34.4492204,49.939454 34.6982414,50.1416004 34.8603516,50.3779297 C35.0224617,50.614259 35.1035156,50.9023421 35.1035156,51.2421875 C35.1035156,51.8085966 34.8769554,52.2626936 34.4238281,52.6044922 C33.9707009,52.9462908 33.3828161,53.1171875 32.6601562,53.1171875 C32.1523412,53.1171875 31.703127,53.0273446 31.3125,52.8476562 C30.921873,52.6679679 30.616212,52.4169938 30.3955078,52.0947266 C30.1748036,51.7724593 30.0644531,51.42383 30.0644531,51.0488281 L31.1484375,51.0488281 C31.1679688,51.4121112 31.3134752,51.7001942 31.5849609,51.9130859 C31.8564467,52.1259776 32.2148415,52.2324219 32.6601562,52.2324219 C33.0703146,52.2324219 33.3994128,52.1494149 33.6474609,51.9833984 C33.8955091,51.817382 34.0195312,51.5957045 34.0195312,51.3183594 Z" id="Details" fill="#6A6F75"></path>
                <path d="M132.827148,50.7734375 L129.25293,50.7734375 L128.450195,53 L127.290039,53 L130.547852,44.46875 L131.532227,44.46875 L134.795898,53 L133.641602,53 L132.827148,50.7734375 Z M129.592773,49.8476562 L132.493164,49.8476562 L131.040039,45.8574219 L129.592773,49.8476562 Z M137.245117,45.125 L137.245117,46.6601562 L138.428711,46.6601562 L138.428711,47.4980469 L137.245117,47.4980469 L137.245117,51.4296875 C137.245117,51.683595 137.297851,51.8740228 137.40332,52.0009766 C137.50879,52.1279303 137.688475,52.1914062 137.942383,52.1914062 C138.067383,52.1914062 138.239257,52.167969 138.458008,52.1210938 L138.458008,53 C138.17285,53.0781254 137.895509,53.1171875 137.625977,53.1171875 C137.141599,53.1171875 136.776368,52.9707046 136.530273,52.6777344 C136.284178,52.3847642 136.161133,51.9687527 136.161133,51.4296875 L136.161133,47.4980469 L135.006836,47.4980469 L135.006836,46.6601562 L136.161133,46.6601562 L136.161133,45.125 L137.245117,45.125 Z M141.165039,45.125 L141.165039,46.6601562 L142.348633,46.6601562 L142.348633,47.4980469 L141.165039,47.4980469 L141.165039,51.4296875 C141.165039,51.683595 141.217773,51.8740228 141.323242,52.0009766 C141.428711,52.1279303 141.608397,52.1914062 141.862305,52.1914062 C141.987305,52.1914062 142.159179,52.167969 142.37793,52.1210938 L142.37793,53 C142.092772,53.0781254 141.815431,53.1171875 141.545898,53.1171875 C141.061521,53.1171875 140.69629,52.9707046 140.450195,52.6777344 C140.2041,52.3847642 140.081055,51.9687527 140.081055,51.4296875 L140.081055,47.4980469 L138.926758,47.4980469 L138.926758,46.6601562 L140.081055,46.6601562 L140.081055,45.125 L141.165039,45.125 Z M146.678711,47.6328125 C146.514648,47.6054686 146.336915,47.5917969 146.145508,47.5917969 C145.434567,47.5917969 144.95215,47.8945282 144.698242,48.5 L144.698242,53 L143.614258,53 L143.614258,46.6601562 L144.668945,46.6601562 L144.686523,47.3925781 C145.041994,46.826169 145.545895,46.5429688 146.198242,46.5429688 C146.409181,46.5429688 146.569335,46.5703122 146.678711,46.625 L146.678711,47.6328125 Z M148.852539,53 L147.768555,53 L147.768555,46.6601562 L148.852539,46.6601562 L148.852539,53 Z M147.680664,44.9785156 C147.680664,44.8027335 147.734374,44.6542975 147.841797,44.5332031 C147.949219,44.4121088 148.108397,44.3515625 148.319336,44.3515625 C148.530274,44.3515625 148.690429,44.4121088 148.799805,44.5332031 C148.90918,44.6542975 148.963867,44.8027335 148.963867,44.9785156 C148.963867,45.1542978 148.90918,45.3007807 148.799805,45.4179688 C148.690429,45.5351568 148.530274,45.59375 148.319336,45.59375 C148.108397,45.59375 147.949219,45.5351568 147.841797,45.4179688 C147.734374,45.3007807 147.680664,45.1542978 147.680664,44.9785156 Z M155.954102,49.9003906 C155.954102,50.8691455 155.731448,51.647458 155.286133,52.2353516 C154.840818,52.8232451 154.243168,53.1171875 153.493164,53.1171875 C152.692379,53.1171875 152.073244,52.8339872 151.635742,52.2675781 L151.583008,53 L150.586914,53 L150.586914,44 L151.670898,44 L151.670898,47.3574219 C152.108401,46.8144504 152.71191,46.5429688 153.481445,46.5429688 C154.25098,46.5429688 154.855467,46.8339815 155.294922,47.4160156 C155.734377,47.9980498 155.954102,48.7949168 155.954102,49.8066406 L155.954102,49.9003906 Z M154.870117,49.7773438 C154.870117,49.0390588 154.72754,48.468752 154.442383,48.0664062 C154.157225,47.6640605 153.747073,47.4628906 153.211914,47.4628906 C152.497067,47.4628906 151.9834,47.7949186 151.670898,48.4589844 L151.670898,51.2011719 C152.002931,51.8652377 152.520504,52.1972656 153.223633,52.1972656 C153.743167,52.1972656 154.147459,51.9960958 154.436523,51.59375 C154.725587,51.1914042 154.870117,50.5859415 154.870117,49.7773438 Z M161.233398,52.3730469 C160.811521,52.8691431 160.192387,53.1171875 159.375977,53.1171875 C158.700192,53.1171875 158.185549,52.9209004 157.832031,52.5283203 C157.478514,52.1357402 157.299805,51.5546913 157.295898,50.7851562 L157.295898,46.6601562 L158.379883,46.6601562 L158.379883,50.7558594 C158.379883,51.7168017 158.770504,52.1972656 159.551758,52.1972656 C160.379887,52.1972656 160.930663,51.888675 161.204102,51.2714844 L161.204102,46.6601562 L162.288086,46.6601562 L162.288086,53 L161.256836,53 L161.233398,52.3730469 Z M165.405273,45.125 L165.405273,46.6601562 L166.588867,46.6601562 L166.588867,47.4980469 L165.405273,47.4980469 L165.405273,51.4296875 C165.405273,51.683595 165.458007,51.8740228 165.563477,52.0009766 C165.668946,52.1279303 165.848632,52.1914062 166.102539,52.1914062 C166.22754,52.1914062 166.399413,52.167969 166.618164,52.1210938 L166.618164,53 C166.333006,53.0781254 166.055665,53.1171875 165.786133,53.1171875 C165.301755,53.1171875 164.936525,52.9707046 164.69043,52.6777344 C164.444335,52.3847642 164.321289,51.9687527 164.321289,51.4296875 L164.321289,47.4980469 L163.166992,47.4980469 L163.166992,46.6601562 L164.321289,46.6601562 L164.321289,45.125 L165.405273,45.125 Z M170.485352,53.1171875 C169.625972,53.1171875 168.926761,52.8349638 168.387695,52.2705078 C167.84863,51.7060519 167.579102,50.9511766 167.579102,50.0058594 L167.579102,49.8066406 C167.579102,49.1777312 167.699218,48.6162134 167.939453,48.1220703 C168.179689,47.6279272 168.515623,47.2412123 168.947266,46.9619141 C169.378908,46.6826158 169.846677,46.5429688 170.350586,46.5429688 C171.174809,46.5429688 171.815427,46.8144504 172.272461,47.3574219 C172.729494,47.9003933 172.958008,48.6777293 172.958008,49.6894531 L172.958008,50.140625 L168.663086,50.140625 C168.678711,50.7656281 168.861326,51.2705059 169.210938,51.6552734 C169.560549,52.040041 170.00488,52.2324219 170.543945,52.2324219 C170.92676,52.2324219 171.250975,52.1542977 171.516602,51.9980469 C171.782228,51.8417961 172.014647,51.6347669 172.213867,51.3769531 L172.875977,51.8925781 C172.344724,52.7089885 171.547857,53.1171875 170.485352,53.1171875 Z M170.350586,47.4335938 C169.913084,47.4335938 169.5459,47.5927718 169.249023,47.9111328 C168.952147,48.2294938 168.768555,48.6757784 168.698242,49.25 L171.874023,49.25 L171.874023,49.1679688 C171.842773,48.6171847 171.694337,48.1904312 171.428711,47.8876953 C171.163085,47.5849594 170.803713,47.4335938 170.350586,47.4335938 Z M177.90332,51.3183594 C177.90332,51.0253892 177.79297,50.7978524 177.572266,50.6357422 C177.351561,50.473632 176.9668,50.333985 176.417969,50.2167969 C175.869138,50.0996088 175.433595,49.9589852 175.111328,49.7949219 C174.789061,49.6308586 174.550782,49.435548 174.396484,49.2089844 C174.242187,48.9824207 174.165039,48.7128922 174.165039,48.4003906 C174.165039,47.8808568 174.384763,47.441408 174.824219,47.0820312 C175.263674,46.7226545 175.825192,46.5429688 176.508789,46.5429688 C177.227543,46.5429688 177.810545,46.7285138 178.257812,47.0996094 C178.70508,47.470705 178.928711,47.9453096 178.928711,48.5234375 L177.838867,48.5234375 C177.838867,48.226561 177.712892,47.9707042 177.460938,47.7558594 C177.208983,47.5410146 176.891603,47.4335938 176.508789,47.4335938 C176.114256,47.4335938 175.805665,47.5195304 175.583008,47.6914062 C175.36035,47.8632821 175.249023,48.0878892 175.249023,48.3652344 C175.249023,48.6269544 175.352538,48.8242181 175.55957,48.9570312 C175.766603,49.0898444 176.140622,49.2167963 176.681641,49.3378906 C177.222659,49.458985 177.661131,49.6035148 177.99707,49.7714844 C178.333009,49.939454 178.58203,50.1416004 178.744141,50.3779297 C178.906251,50.614259 178.987305,50.9023421 178.987305,51.2421875 C178.987305,51.8085966 178.760744,52.2626936 178.307617,52.6044922 C177.85449,52.9462908 177.266605,53.1171875 176.543945,53.1171875 C176.03613,53.1171875 175.586916,53.0273446 175.196289,52.8476562 C174.805662,52.6679679 174.500001,52.4169938 174.279297,52.0947266 C174.058593,51.7724593 173.948242,51.42383 173.948242,51.0488281 L175.032227,51.0488281 C175.051758,51.4121112 175.197264,51.7001942 175.46875,51.9130859 C175.740236,52.1259776 176.098631,52.2324219 176.543945,52.2324219 C176.954104,52.2324219 177.283202,52.1494149 177.53125,51.9833984 C177.779298,51.817382 177.90332,51.5957045 177.90332,51.3183594 Z" id="Attributes" fill="#6A6F75"></path>
                <path d="M276.548828,49.5488281 L274.544922,49.5488281 L274.544922,53 L273.414062,53 L273.414062,44.46875 L276.238281,44.46875 C277.199224,44.46875 277.938474,44.6874978 278.456055,45.125 C278.973635,45.5625022 279.232422,46.1992146 279.232422,47.0351562 C279.232422,47.5664089 279.088869,48.0292949 278.801758,48.4238281 C278.514647,48.8183613 278.115237,49.1132803 277.603516,49.3085938 L279.607422,52.9296875 L279.607422,53 L278.400391,53 L276.548828,49.5488281 Z M274.544922,48.6289062 L276.273438,48.6289062 C276.832034,48.6289062 277.276366,48.4843764 277.606445,48.1953125 C277.936525,47.9062486 278.101562,47.5195337 278.101562,47.0351562 C278.101562,46.5078099 277.944338,46.103517 277.629883,45.8222656 C277.315428,45.5410142 276.861331,45.3984375 276.267578,45.3945312 L274.544922,45.3945312 L274.544922,48.6289062 Z M283.269531,53.1171875 C282.410152,53.1171875 281.71094,52.8349638 281.171875,52.2705078 C280.63281,51.7060519 280.363281,50.9511766 280.363281,50.0058594 L280.363281,49.8066406 C280.363281,49.1777312 280.483397,48.6162134 280.723633,48.1220703 C280.963868,47.6279272 281.299803,47.2412123 281.731445,46.9619141 C282.163088,46.6826158 282.630857,46.5429688 283.134766,46.5429688 C283.958988,46.5429688 284.599607,46.8144504 285.056641,47.3574219 C285.513674,47.9003933 285.742188,48.6777293 285.742188,49.6894531 L285.742188,50.140625 L281.447266,50.140625 C281.462891,50.7656281 281.645506,51.2705059 281.995117,51.6552734 C282.344728,52.040041 282.78906,52.2324219 283.328125,52.2324219 C283.710939,52.2324219 284.035155,52.1542977 284.300781,51.9980469 C284.566408,51.8417961 284.798827,51.6347669 284.998047,51.3769531 L285.660156,51.8925781 C285.128904,52.7089885 284.332037,53.1171875 283.269531,53.1171875 Z M283.134766,47.4335938 C282.697263,47.4335938 282.33008,47.5927718 282.033203,47.9111328 C281.736327,48.2294938 281.552735,48.6757784 281.482422,49.25 L284.658203,49.25 L284.658203,49.1679688 C284.626953,48.6171847 284.478517,48.1904312 284.212891,47.8876953 C283.947264,47.5849594 283.587893,47.4335938 283.134766,47.4335938 Z M289.087891,51.5292969 L290.658203,46.6601562 L291.765625,46.6601562 L289.492188,53 L288.666016,53 L286.369141,46.6601562 L287.476562,46.6601562 L289.087891,51.5292969 Z M293.986328,53 L292.902344,53 L292.902344,46.6601562 L293.986328,46.6601562 L293.986328,53 Z M292.814453,44.9785156 C292.814453,44.8027335 292.868164,44.6542975 292.975586,44.5332031 C293.083008,44.4121088 293.242186,44.3515625 293.453125,44.3515625 C293.664064,44.3515625 293.824218,44.4121088 293.933594,44.5332031 C294.042969,44.6542975 294.097656,44.8027335 294.097656,44.9785156 C294.097656,45.1542978 294.042969,45.3007807 293.933594,45.4179688 C293.824218,45.5351568 293.664064,45.59375 293.453125,45.59375 C293.242186,45.59375 293.083008,45.5351568 292.975586,45.4179688 C292.868164,45.3007807 292.814453,45.1542978 292.814453,44.9785156 Z M298.351562,53.1171875 C297.492183,53.1171875 296.792971,52.8349638 296.253906,52.2705078 C295.714841,51.7060519 295.445312,50.9511766 295.445312,50.0058594 L295.445312,49.8066406 C295.445312,49.1777312 295.565428,48.6162134 295.805664,48.1220703 C296.0459,47.6279272 296.381834,47.2412123 296.813477,46.9619141 C297.245119,46.6826158 297.712888,46.5429688 298.216797,46.5429688 C299.04102,46.5429688 299.681638,46.8144504 300.138672,47.3574219 C300.595705,47.9003933 300.824219,48.6777293 300.824219,49.6894531 L300.824219,50.140625 L296.529297,50.140625 C296.544922,50.7656281 296.727537,51.2705059 297.077148,51.6552734 C297.42676,52.040041 297.871091,52.2324219 298.410156,52.2324219 C298.792971,52.2324219 299.117186,52.1542977 299.382812,51.9980469 C299.648439,51.8417961 299.880858,51.6347669 300.080078,51.3769531 L300.742188,51.8925781 C300.210935,52.7089885 299.414068,53.1171875 298.351562,53.1171875 Z M298.216797,47.4335938 C297.779295,47.4335938 297.412111,47.5927718 297.115234,47.9111328 C296.818358,48.2294938 296.634766,48.6757784 296.564453,49.25 L299.740234,49.25 L299.740234,49.1679688 C299.708984,48.6171847 299.560548,48.1904312 299.294922,47.8876953 C299.029296,47.5849594 298.669924,47.4335938 298.216797,47.4335938 Z M307.691406,51.5058594 L308.910156,46.6601562 L309.994141,46.6601562 L308.148438,53 L307.269531,53 L305.728516,48.1953125 L304.228516,53 L303.349609,53 L301.509766,46.6601562 L302.587891,46.6601562 L303.835938,51.40625 L305.3125,46.6601562 L306.185547,46.6601562 L307.691406,51.5058594 Z" id="Review" fill="#000F21"></path>
                <g id="Group-2-Copy-4" transform="translate(1.352539, 0.000000)">
                    <circle id="Oval" fill="#2A65B0" cx="16" cy="16" r="16"></circle>
                    <path d="M22.378872,10.1054685 C22.4491843,10.0351562 22.5429343,10 22.6601213,10 C22.7773083,10 22.8827768,10.0351562 22.9765268,10.1054685 L23.9608994,11.1249973 C24.0546494,11.1953097 24.1015241,11.2890596 24.1015241,11.4062466 C24.1015241,11.5234337 24.0546494,11.6289022 23.9608994,11.7226521 L13.4140496,22.269502 C13.3437373,22.3398143 13.2499873,22.3749705 13.1328003,22.3749705 C13.0156132,22.3749705 12.9101447,22.3398143 12.8163948,22.269502 L8.14062466,17.5585757 C8.04687471,17.4882634 8,17.3945134 8,17.2773264 C8,17.1601394 8.04687471,17.0546709 8.14062466,16.9609209 L9.12499732,15.9765483 C9.21874727,15.8827983 9.32421577,15.8359236 9.44140281,15.8359236 C9.55858986,15.8359236 9.65233981,15.8827983 9.72265214,15.9765483 L13.1328003,19.3866964 L22.378872,10.1054685 Z" id="c" fill="#FFFFFF"></path>
                    <circle id="Oval-Copy" fill="#2A65B0" cx="153" cy="16" r="16"></circle>
                    <path d="M159.378872,10.1054685 C159.449184,10.0351562 159.542934,10 159.660121,10 C159.777308,10 159.882777,10.0351562 159.976527,10.1054685 L160.960899,11.1249973 C161.054649,11.1953097 161.101524,11.2890596 161.101524,11.4062466 C161.101524,11.5234337 161.054649,11.6289022 160.960899,11.7226521 L150.41405,22.269502 C150.343737,22.3398143 150.249987,22.3749705 150.1328,22.3749705 C150.015613,22.3749705 149.910145,22.3398143 149.816395,22.269502 L145.140625,17.5585757 C145.046875,17.4882634 145,17.3945134 145,17.2773264 C145,17.1601394 145.046875,17.0546709 145.140625,16.9609209 L146.124997,15.9765483 C146.218747,15.8827983 146.324216,15.8359236 146.441403,15.8359236 C146.55859,15.8359236 146.65234,15.8827983 146.722652,15.9765483 L150.1328,19.3866964 L159.378872,10.1054685 Z" id="c" fill="#FFFFFF"></path>
                    <circle id="Oval-Copy-2" fill="#2A65B0" cx="290" cy="16" r="16"></circle>
                    <path d="M288.374023,14.8105469 L289.595703,14.8105469 C290.363285,14.7988281 290.966795,14.5966817 291.40625,14.2041016 C291.845705,13.8115215 292.06543,13.2812533 292.06543,12.6132812 C292.06543,11.1132737 291.318367,10.3632812 289.824219,10.3632812 C289.12109,10.3632812 288.560061,10.5639628 288.141113,10.965332 C287.722166,11.3667012 287.512695,11.8984342 287.512695,12.5605469 L285.886719,12.5605469 C285.886719,11.5468699 286.257321,10.7045932 286.998535,10.0336914 C287.73975,9.36278961 288.681635,9.02734375 289.824219,9.02734375 C291.031256,9.02734375 291.977536,9.34667649 292.663086,9.98535156 C293.348636,10.6240266 293.691406,11.5117131 293.691406,12.6484375 C293.691406,13.2050809 293.511232,13.744138 293.150879,14.265625 C292.790526,14.787112 292.299808,15.1767565 291.678711,15.4345703 C292.381839,15.6572277 292.925291,16.0263646 293.309082,16.5419922 C293.692873,17.0576198 293.884766,17.6874963 293.884766,18.4316406 C293.884766,19.5800839 293.509769,20.4912076 292.759766,21.1650391 C292.009762,21.8388706 291.034186,22.1757812 289.833008,22.1757812 C288.63183,22.1757812 287.654789,21.8505892 286.901855,21.2001953 C286.148922,20.5498014 285.772461,19.6914116 285.772461,18.625 L287.407227,18.625 C287.407227,19.2988315 287.626951,19.8378886 288.066406,20.2421875 C288.505862,20.6464864 289.094723,20.8486328 289.833008,20.8486328 C290.618168,20.8486328 291.218748,20.6435567 291.634766,20.2333984 C292.050783,19.8232401 292.258789,19.2343788 292.258789,18.4667969 C292.258789,17.7226525 292.030276,17.1513692 291.573242,16.7529297 C291.116209,16.3544902 290.457036,16.1494141 289.595703,16.1376953 L288.374023,16.1376953 L288.374023,14.8105469 Z" id="3" fill="#FFFFFF"></path>
                    <g id="Group" transform="translate(38.000000, 16.000000)" fill="#E4E9F0">
                        <path d="M25.5,0 C26.3284271,-1.52179594e-16 27,0.671572875 27,1.5 C27,2.32842712 26.3284271,3 25.5,3 C24.6715729,3 24,2.32842712 24,1.5 C24,0.671572875 24.6715729,1.52179594e-16 25.5,0 Z M19.5,0 C20.3284271,-1.52179594e-16 21,0.671572875 21,1.5 C21,2.32842712 20.3284271,3 19.5,3 C18.6715729,3 18,2.32842712 18,1.5 C18,0.671572875 18.6715729,1.52179594e-16 19.5,0 Z M13.5,0 C14.3284271,-1.52179594e-16 15,0.671572875 15,1.5 C15,2.32842712 14.3284271,3 13.5,3 C12.6715729,3 12,2.32842712 12,1.5 C12,0.671572875 12.6715729,1.52179594e-16 13.5,0 Z M7.5,0 C8.32842712,-1.52179594e-16 9,0.671572875 9,1.5 C9,2.32842712 8.32842712,3 7.5,3 C6.67157288,3 6,2.32842712 6,1.5 C6,0.671572875 6.67157288,1.52179594e-16 7.5,0 Z M1.5,0 C2.32842712,-1.52179594e-16 3,0.671572875 3,1.5 C3,2.32842712 2.32842712,3 1.5,3 C0.671572875,3 1.01453063e-16,2.32842712 0,1.5 C-1.01453063e-16,0.671572875 0.671572875,1.52179594e-16 1.5,0 Z M31.5,0 C32.3284271,-1.52179594e-16 33,0.671572875 33,1.5 C33,2.32842712 32.3284271,3 31.5,3 C30.6715729,3 30,2.32842712 30,1.5 C30,0.671572875 30.6715729,1.52179594e-16 31.5,0 Z M37.5,0 C38.3284271,-1.52179594e-16 39,0.671572875 39,1.5 C39,2.32842712 38.3284271,3 37.5,3 C36.6715729,3 36,2.32842712 36,1.5 C36,0.671572875 36.6715729,1.52179594e-16 37.5,0 Z M43.5,0 C44.3284271,-1.52179594e-16 45,0.671572875 45,1.5 C45,2.32842712 44.3284271,3 43.5,3 C42.6715729,3 42,2.32842712 42,1.5 C42,0.671572875 42.6715729,1.52179594e-16 43.5,0 Z M49.5,0 C50.3284271,-1.52179594e-16 51,0.671572875 51,1.5 C51,2.32842712 50.3284271,3 49.5,3 C48.6715729,3 48,2.32842712 48,1.5 C48,0.671572875 48.6715729,1.52179594e-16 49.5,0 Z M55.5,0 C56.3284271,-1.52179594e-16 57,0.671572875 57,1.5 C57,2.32842712 56.3284271,3 55.5,3 C54.6715729,3 54,2.32842712 54,1.5 C54,0.671572875 54.6715729,1.52179594e-16 55.5,0 Z M61.5,0 C62.3284271,-1.52179594e-16 63,0.671572875 63,1.5 C63,2.32842712 62.3284271,3 61.5,3 C60.6715729,3 60,2.32842712 60,1.5 C60,0.671572875 60.6715729,1.52179594e-16 61.5,0 Z M67.5,0 C68.3284271,-1.52179594e-16 69,0.671572875 69,1.5 C69,2.32842712 68.3284271,3 67.5,3 C66.6715729,3 66,2.32842712 66,1.5 C66,0.671572875 66.6715729,1.52179594e-16 67.5,0 Z M73.5,0 C74.3284271,-1.52179594e-16 75,0.671572875 75,1.5 C75,2.32842712 74.3284271,3 73.5,3 C72.6715729,3 72,2.32842712 72,1.5 C72,0.671572875 72.6715729,1.52179594e-16 73.5,0 Z M79.5,0 C80.3284271,-1.52179594e-16 81,0.671572875 81,1.5 C81,2.32842712 80.3284271,3 79.5,3 C78.6715729,3 78,2.32842712 78,1.5 C78,0.671572875 78.6715729,1.52179594e-16 79.5,0 Z M85.5,0 C86.3284271,-1.52179594e-16 87,0.671572875 87,1.5 C87,2.32842712 86.3284271,3 85.5,3 C84.6715729,3 84,2.32842712 84,1.5 C84,0.671572875 84.6715729,1.52179594e-16 85.5,0 Z M91.5,0 C92.3284271,-1.52179594e-16 93,0.671572875 93,1.5 C93,2.32842712 92.3284271,3 91.5,3 C90.6715729,3 90,2.32842712 90,1.5 C90,0.671572875 90.6715729,1.52179594e-16 91.5,0 Z" id="Combined-Shape"></path>
                        <path d="M162.5,0 C163.328427,-1.52179594e-16 164,0.671572875 164,1.5 C164,2.32842712 163.328427,3 162.5,3 C161.671573,3 161,2.32842712 161,1.5 C161,0.671572875 161.671573,1.52179594e-16 162.5,0 Z M156.5,0 C157.328427,-1.52179594e-16 158,0.671572875 158,1.5 C158,2.32842712 157.328427,3 156.5,3 C155.671573,3 155,2.32842712 155,1.5 C155,0.671572875 155.671573,1.52179594e-16 156.5,0 Z M150.5,0 C151.328427,-1.52179594e-16 152,0.671572875 152,1.5 C152,2.32842712 151.328427,3 150.5,3 C149.671573,3 149,2.32842712 149,1.5 C149,0.671572875 149.671573,1.52179594e-16 150.5,0 Z M144.5,0 C145.328427,-1.52179594e-16 146,0.671572875 146,1.5 C146,2.32842712 145.328427,3 144.5,3 C143.671573,3 143,2.32842712 143,1.5 C143,0.671572875 143.671573,1.52179594e-16 144.5,0 Z M138.5,0 C139.328427,-1.52179594e-16 140,0.671572875 140,1.5 C140,2.32842712 139.328427,3 138.5,3 C137.671573,3 137,2.32842712 137,1.5 C137,0.671572875 137.671573,1.52179594e-16 138.5,0 Z M168.5,0 C169.328427,-1.52179594e-16 170,0.671572875 170,1.5 C170,2.32842712 169.328427,3 168.5,3 C167.671573,3 167,2.32842712 167,1.5 C167,0.671572875 167.671573,1.52179594e-16 168.5,0 Z M174.5,0 C175.328427,-1.52179594e-16 176,0.671572875 176,1.5 C176,2.32842712 175.328427,3 174.5,3 C173.671573,3 173,2.32842712 173,1.5 C173,0.671572875 173.671573,1.52179594e-16 174.5,0 Z M180.5,0 C181.328427,-1.52179594e-16 182,0.671572875 182,1.5 C182,2.32842712 181.328427,3 180.5,3 C179.671573,3 179,2.32842712 179,1.5 C179,0.671572875 179.671573,1.52179594e-16 180.5,0 Z M186.5,0 C187.328427,-1.52179594e-16 188,0.671572875 188,1.5 C188,2.32842712 187.328427,3 186.5,3 C185.671573,3 185,2.32842712 185,1.5 C185,0.671572875 185.671573,1.52179594e-16 186.5,0 Z M192.5,0 C193.328427,-1.52179594e-16 194,0.671572875 194,1.5 C194,2.32842712 193.328427,3 192.5,3 C191.671573,3 191,2.32842712 191,1.5 C191,0.671572875 191.671573,1.52179594e-16 192.5,0 Z M198.5,0 C199.328427,-1.52179594e-16 200,0.671572875 200,1.5 C200,2.32842712 199.328427,3 198.5,3 C197.671573,3 197,2.32842712 197,1.5 C197,0.671572875 197.671573,1.52179594e-16 198.5,0 Z M204.5,0 C205.328427,-1.52179594e-16 206,0.671572875 206,1.5 C206,2.32842712 205.328427,3 204.5,3 C203.671573,3 203,2.32842712 203,1.5 C203,0.671572875 203.671573,1.52179594e-16 204.5,0 Z M210.5,0 C211.328427,-1.52179594e-16 212,0.671572875 212,1.5 C212,2.32842712 211.328427,3 210.5,3 C209.671573,3 209,2.32842712 209,1.5 C209,0.671572875 209.671573,1.52179594e-16 210.5,0 Z M216.5,0 C217.328427,-1.52179594e-16 218,0.671572875 218,1.5 C218,2.32842712 217.328427,3 216.5,3 C215.671573,3 215,2.32842712 215,1.5 C215,0.671572875 215.671573,1.52179594e-16 216.5,0 Z M222.5,0 C223.328427,-1.52179594e-16 224,0.671572875 224,1.5 C224,2.32842712 223.328427,3 222.5,3 C221.671573,3 221,2.32842712 221,1.5 C221,0.671572875 221.671573,1.52179594e-16 222.5,0 Z M228.5,0 C229.328427,-1.52179594e-16 230,0.671572875 230,1.5 C230,2.32842712 229.328427,3 228.5,3 C227.671573,3 227,2.32842712 227,1.5 C227,0.671572875 227.671573,1.52179594e-16 228.5,0 Z" id="Combined-Shape-Copy"></path>
                    </g>
                </g>
            </g>
        </g>
    </g>
</svg>