<svg xmlns="http://www.w3.org/2000/svg" width="24" height="24" viewBox="0 0 24 24">
    <g fill="none" fill-rule="evenodd">
        <rect width="24" height="24" fill="#F6F7F8" rx="5"/>
        <path fill="#78909C" fill-rule="nonzero" d="M11.668 9.199C9.096 12.975 7.516 18.219 6.899 20c-.346-3.36 1.484-7.94 2.823-10.644-.617.027-3.901.249-5.722 2.05 0 0 .983-2.89 6.656-3.768l.02-.036c4.44-6.214 7.773-2.502 7.773-2.502-2.023-.323-3.786.646-5.288 2.225.732-.028 5.471-.084 6.839 3.508 0 0-2.745-1.884-8.332-1.634zM15 14c-1.103 0-2 .897-2 2s.897 2 2 2 2-.897 2-2c0-1.112-.897-2-2-2z"/>
    </g>
</svg>
