 <svg xmlns="http://www.w3.org/2000/svg" width="129" height="29" viewBox="0 0 129 29">
    <defs>
        <linearGradient id="a" x1="30.147%" x2="78.919%" y1="6.312%" y2="101.828%">
            <stop offset="0%" stop-color="#5600DB"/>
            <stop offset="100%" stop-color="#21A9D5"/>
        </linearGradient>
    </defs>
    <g fill="none" fill-rule="evenodd">
        <path fill="#062144" d="M40.186 12.462h-3.812a.191.191 0 0 0-.199.199v2.038c0 .116.083.199.2.199h3.413c.249 0 .464.199.464.464v2.17a.463.463 0 0 1-.464.465h-3.414a.191.191 0 0 0-.199.198V23.2a.463.463 0 0 1-.464.464h-2.8a.463.463 0 0 1-.464-.464V9.827c0-.249.199-.464.464-.464h7.258c.249 0 .464.199.464.464v2.17c.017.266-.182.465-.447.465zM56.194 17.599a9.847 9.847 0 0 1-.216 2.204c-.215.944-.745 1.806-1.557 2.585-1.16 1.094-2.718 1.64-4.657 1.64-1.972 0-3.513-.563-4.623-1.673a4.743 4.743 0 0 1-1.21-2.204 11.84 11.84 0 0 1-.232-2.536V9.827c0-.249.199-.464.464-.464h2.8c.249 0 .464.199.464.464v7.275c0 .63.017 1.093.034 1.392.066.977.513 1.64 1.325 2.038.348.166.73.249 1.11.232.912 0 1.591-.315 2.055-.945.348-.464.514-1.375.514-2.717V9.827c0-.249.199-.464.464-.464h2.784c.249 0 .464.199.464.464l.017 7.772zM69.965 18.925c0 2.419-1.061 3.993-3.182 4.722a6.859 6.859 0 0 1-2.386.382c-1.641 0-3.248-.481-4.624-1.392a.474.474 0 0 1-.166-.614l1.127-2.12a.45.45 0 0 1 .613-.2c.017.017.05.034.067.05.977.779 1.922 1.16 2.867 1.16.43.017.861-.1 1.226-.331.381-.232.596-.647.58-1.077 0-.431-.216-.78-.646-1.061-.315-.215-.862-.43-1.624-.646-.928-.265-1.508-.464-1.74-.564a3.96 3.96 0 0 1-.962-.563c-.745-.63-1.126-1.574-1.126-2.85 0-1.326.397-2.42 1.176-3.298.928-1.028 2.154-1.541 3.696-1.541 1.425 0 2.817.331 4.11.944.231.116.33.381.231.613 0 0 0 .017-.016.017l-1.044 2.038a.465.465 0 0 1-.63.2c-.017 0-.033-.017-.033-.017a3.731 3.731 0 0 0-2.038-.663c-.382 0-.746.116-1.078.315-.331.182-.53.546-.53.928 0 .38.232.696.696.977.216.133.845.348 1.89.647 1.308.38 2.253.928 2.816 1.64.498.597.73 1.359.73 2.304zM73.163 9.363h3.729v14.301h-3.729z"/>
        <path fill="#062144" fill-rule="nonzero" d="M95.932 16.555a7.513 7.513 0 0 1-1.939 5.104c-1.475 1.674-3.463 2.502-5.982 2.502s-4.508-.828-5.966-2.502a7.543 7.543 0 0 1-1.939-5.104 7.785 7.785 0 0 1 .53-2.734 7.653 7.653 0 0 1 1.393-2.387c1.474-1.673 3.463-2.502 5.982-2.502s4.507.829 5.982 2.502a7.428 7.428 0 0 1 1.939 5.12zm-3.845 0a3.905 3.905 0 0 0-.96-2.618 4.068 4.068 0 0 0-5.734-.448 4.048 4.048 0 0 0-1.426 3.066c0 .961.332 1.872.962 2.585a3.897 3.897 0 0 0 3.082 1.425c2.22.017 4.043-1.756 4.06-3.977.016-.017.016-.017.016-.033z"/>
        <path fill="#062144" d="M112.967 23.664h-3.032a.44.44 0 0 1-.365-.182l-6.347-8.12a.207.207 0 0 0-.281-.033.198.198 0 0 0-.083.149v8.17h-3.265a.463.463 0 0 1-.464-.465V9.827c0-.249.2-.464.464-.464h3.033a.44.44 0 0 1 .364.182l6.347 8.12a.207.207 0 0 0 .365-.132V9.827c0-.249.199-.464.464-.464h2.8c.249 0 .464.199.464.464V23.2a.474.474 0 0 1-.464.464z"/>
        <path fill="url(#a)" fill-rule="nonzero" d="M13.19 9.495c-4.424 6.778-7.141 16.19-8.202 19.389-.597-6.032 2.552-14.251 4.855-19.107-1.06.05-6.711.448-9.843 3.679 0 0 1.69-5.187 11.45-6.761l.034-.066c7.64-11.153 13.373-4.491 13.373-4.491-3.48-.58-6.512 1.16-9.098 3.993 1.26-.05 9.413-.149 11.766 6.298 0 0-4.723-3.381-14.334-2.934zm5.52 7.772a3.55 3.55 0 0 0-3.547 3.547 3.55 3.55 0 0 0 3.546 3.546 3.55 3.55 0 0 0 3.546-3.546 3.54 3.54 0 0 0-3.546-3.547z"/>
        <path fill="#DDD" d="M128.346 24.923h-.912V5.701h.912z"/>
    </g>
</svg>
