<svg xmlns="http://www.w3.org/2000/svg" width="14" height="12" viewBox="0 0 14 12">
    <g fill="none" fill-rule="evenodd">
        <path d="M-1-2h16v16H-1z"/>
        <path fill="#062144" d="M11.266 5.996c-.092.091-.205.11-.342.055a.3.3 0 0 1-.205-.301V3.781H.329a.316.316 0 0 1-.233-.095A.316.316 0 0 1 0 3.453v-.656c0-.091.032-.169.096-.233a.316.316 0 0 1 .232-.095h10.39V.5a.3.3 0 0 1 .206-.3c.137-.055.25-.037.342.054l2.625 2.652a.26.26 0 0 1 .109.219.26.26 0 0 1-.11.219l-2.624 2.652zM.109 8.594A.26.26 0 0 1 0 8.375a.26.26 0 0 1 .11-.219l2.624-2.652c.092-.091.205-.11.342-.055a.3.3 0 0 1 .205.301v1.969h10.39c.092 0 .17.032.233.095a.316.316 0 0 1 .096.233v.656a.316.316 0 0 1-.096.233.316.316 0 0 1-.232.095H3.282V11a.3.3 0 0 1-.206.3c-.137.055-.25.037-.342-.054L.11 8.594z"/>
    </g>
</svg>
