<svg xmlns="http://www.w3.org/2000/svg" width="16" height="11" viewBox="0 0 16 11">
    <g fill="none" fill-rule="evenodd">
        <path d="M0-2h16v16H0z"/>
        <path fill="#062144" d="M11.062 4.438H4.937v2.625h6.125V4.438zm.657-1.313c.182 0 .337.064.465.191a.633.633 0 0 1 .191.465V7.72a.633.633 0 0 1-.191.465.633.633 0 0 1-.465.191H4.28a.633.633 0 0 1-.465-.191.633.633 0 0 1-.191-.465V3.78c0-.182.064-.337.191-.465a.633.633 0 0 1 .465-.191h7.438zm3.937 1.531c-.31 0-.57.105-.78.315-.209.21-.314.47-.314.779 0 .31.105.57.315.78.21.209.47.314.78.314h.218v2.844c0 .364-.128.674-.383.93a1.266 1.266 0 0 1-.93.382H1.437c-.364 0-.674-.128-.93-.383a1.266 1.266 0 0 1-.382-.93V6.845h.219c.31 0 .57-.105.779-.315.21-.21.314-.47.314-.779 0-.31-.104-.57-.314-.78-.21-.209-.47-.314-.78-.314H.126V1.813c0-.365.128-.675.383-.93S1.073.5 1.438.5h13.124c.365 0 .675.128.93.383s.383.565.383.93v2.843h-.219zm-1.094-1.039V1.813H1.437v1.804c.402.2.72.492.958.875.237.383.355.802.355 1.258 0 .456-.118.875-.355 1.258a2.332 2.332 0 0 1-.958.875v1.805h13.125V7.883c-.4-.2-.72-.492-.957-.875a2.344 2.344 0 0 1-.355-1.258c0-.456.118-.875.355-1.258s.556-.674.957-.875z"/>
    </g>
</svg>
