<?xml version="1.0" encoding="UTF-8"?>
<svg width="14px" height="13px" viewBox="0 0 14 13" version="1.1" xmlns="http://www.w3.org/2000/svg" xmlns:xlink="http://www.w3.org/1999/xlink">
    <!-- Generator: Sketch 53.2 (72643) - https://sketchapp.com -->
    <title></title>
    <desc>Created with Sketch.</desc>
    <g id="Experiments" stroke="none" stroke-width="1" fill="none" fill-rule="evenodd">
        <g id="Dashboard--Sent-Timelocks" transform="translate(-188.000000, -589.000000)" fill="#2B99FF" fill-rule="nonzero">
            <g id="Wallet-Info-Panel" transform="translate(80.000000, 207.000000)">
                <g id="Wallet-Info" transform="translate(32.000000, 153.000000)">
                    <path d="M89.4999678,233.67189 C89.4999678,233.76564 89.4648116,233.843765 89.3944993,233.906265 C89.324187,233.968764 89.2421559,234.000014 89.1484062,234.000014 L88.3749705,234.000014 C88.2812207,234.000014 88.203096,233.964858 88.1405961,233.894546 C88.0780961,233.824233 88.0468463,233.742202 88.0468463,233.648453 L88.0937212,231.937519 L88.0468463,231.890644 L81.5312368,238.406254 C81.4687368,238.468754 81.3984245,238.500004 81.3202998,238.500004 C81.2421751,238.500004 81.1796752,238.468754 81.1328003,238.406254 L80.593739,237.867193 C80.5312391,237.820318 80.4999893,237.757818 80.4999893,237.679693 C80.4999893,237.601568 80.5312391,237.531256 80.593739,237.468756 L87.1093485,230.953147 L87.0624736,230.906272 L85.3515402,230.953147 C85.2577904,230.953147 85.1757594,230.921897 85.105447,230.859397 C85.0351347,230.796897 84.9999785,230.718772 84.9999785,230.625022 L84.9999785,229.851587 C84.9999785,229.757837 85.0312283,229.675806 85.0937283,229.605494 C85.1562283,229.535181 85.234353,229.500025 85.3281028,229.500025 L89.1718436,229.500025 C89.2655934,229.500025 89.3437181,229.531275 89.406218,229.593775 C89.468718,229.656275 89.4999678,229.734399 89.4999678,229.828149 L89.4999678,233.67189 Z M86.0312261,234.984387 C86.1093508,234.890637 86.2070069,234.8672 86.3241941,234.914075 C86.4413814,234.96095 86.499975,235.046887 86.499975,235.171887 L86.499975,240.374999 C86.499975,240.687498 86.3906001,240.953123 86.1718507,241.171872 C85.9531014,241.390622 85.6874768,241.499996 85.3749776,241.499996 L77.1249973,241.499996 C76.8124982,241.499996 76.5468736,241.390622 76.3281242,241.171872 C76.1093749,240.953123 76,240.687498 76,240.374999 L76,232.125019 C76,231.81252 76.1093749,231.546895 76.3281242,231.328146 C76.5468736,231.109396 76.8124982,231.000021 77.1249973,231.000021 L83.7812314,231.000021 C83.8593561,231.000021 83.9218561,231.031271 83.968731,231.093771 L84.5312297,231.65627 C84.6249794,231.734395 84.6484169,231.832051 84.601542,231.949238 C84.5546671,232.066425 84.4687297,232.125019 84.3437301,232.125019 L77.265622,232.125019 C77.2343722,232.125019 77.203122,232.140644 77.1718722,232.171894 C77.1406224,232.203143 77.1249973,232.234394 77.1249973,232.265643 L77.1249973,240.234374 C77.1249973,240.265624 77.1406224,240.296874 77.1718722,240.328124 C77.203122,240.359374 77.2343722,240.374999 77.265622,240.374999 L85.234353,240.374999 C85.2656028,240.374999 85.296853,240.359374 85.3281028,240.328124 C85.3593526,240.296874 85.3749776,240.265624 85.3749776,240.234374 L85.3749776,235.734385 C85.3749776,235.65626 85.4062275,235.593761 85.4687274,235.546886 L86.0312261,234.984387 Z" id=""></path>
                </g>
            </g>
        </g>
    </g>
</svg>