<svg xmlns="http://www.w3.org/2000/svg" width="14" height="15" viewBox="0 0 14 15">
    <path fill="#78909C" fill-rule="nonzero" d="M13.809 12.863a.633.633 0 0 1 .191.465.633.633 0 0 1-.191.465l-.766.766a.633.633 0 0 1-.465.191.633.633 0 0 1-.465-.191L9.38 11.824a.633.633 0 0 1-.192-.465v-.437a5.51 5.51 0 0 1-3.5 1.203 5.524 5.524 0 0 1-2.857-.766A5.746 5.746 0 0 1 .766 9.295 5.524 5.524 0 0 1 0 6.438c0-1.04.255-1.992.766-2.858A5.746 5.746 0 0 1 2.83 1.516 5.524 5.524 0 0 1 5.687.75c1.04 0 1.992.255 2.858.766a5.746 5.746 0 0 1 2.064 2.064c.51.866.766 1.818.766 2.858a5.51 5.51 0 0 1-1.203 3.5h.437c.183 0 .338.063.465.19l2.735 2.735zM5.687 9.938a3.47 3.47 0 0 0 1.764-.465c.538-.31.962-.734 1.272-1.272a3.47 3.47 0 0 0 .464-1.763 3.47 3.47 0 0 0-.464-1.764A3.405 3.405 0 0 0 7.45 3.402a3.47 3.47 0 0 0-1.764-.464 3.47 3.47 0 0 0-1.763.464c-.538.31-.962.734-1.272 1.272a3.47 3.47 0 0 0-.465 1.764c0 .638.155 1.225.465 1.763.31.538.734.962 1.272 1.272a3.47 3.47 0 0 0 1.763.465z"/>
</svg>
