<?xml version="1.0" encoding="UTF-8"?>
<svg width="32px" height="32px" viewBox="0 0 32 32" version="1.1" xmlns="http://www.w3.org/2000/svg" xmlns:xlink="http://www.w3.org/1999/xlink">
    <!-- Generator: Sketch 58 (84663) - https://sketch.com -->
    <title>Swap</title>
    <desc>Created with Sketch.</desc>
    <g id="Screens" stroke="none" stroke-width="1" fill="none" fill-rule="evenodd">
        <g id="Swap-Market" transform="translate(-419.000000, -236.000000)">
            <g id="Swap" transform="translate(419.000000, 236.000000)">
                <rect id="Rectangle" fill="#F6F7F8" x="0" y="0" width="32" height="32" rx="16"></rect>
                <path d="M21.3437158,16.6718901 C21.2734035,16.76564 21.1796535,16.8125148 21.0624665,16.8125148 C20.9452794,16.8125148 20.8398109,16.76564 20.746061,16.6718901 L20.0780938,16.0039229 C19.9843439,15.910173 19.9374692,15.8047045 19.9374692,15.6875174 C19.9374692,15.5703304 19.9843439,15.4765804 20.0780938,15.4062681 L21.8710583,13.7187721 L7.42187399,13.7187721 C7.30468695,13.7187721 7.20507746,13.6777564 7.12304658,13.5957255 C7.04101571,13.5136947 7,13.4140852 7,13.2968981 L7,12.4531501 C7,12.3359631 7.04101571,12.2363536 7.12304658,12.1543227 C7.20507746,12.0722919 7.30468695,12.0312762 7.42187399,12.0312762 L21.8710583,12.0312762 L20.0780938,10.3437802 C19.9843439,10.2734678 19.9374692,10.1797179 19.9374692,10.0625308 C19.9374692,9.9453438 19.9843439,9.83987531 20.0780938,9.74612535 L20.746061,9.07815819 C20.8398109,8.98440824 20.9452794,8.93753353 21.0624665,8.93753353 C21.1796535,8.93753353 21.2734035,8.98440824 21.3437158,9.07815819 L24.8593324,12.5937748 C24.9530824,12.6640871 24.9999571,12.7578371 24.9999571,12.8750241 C24.9999571,12.9922112 24.9530824,13.0859611 24.8593324,13.1562735 L21.3437158,16.6718901 Z M7.14062466,19.9062574 C7.04687471,19.835945 7,19.7421951 7,19.625008 C7,19.507821 7.04687471,19.414071 7.14062466,19.3437587 L10.6562413,15.8281421 C10.7265536,15.7343921 10.8203036,15.6875174 10.9374906,15.6875174 C11.0546777,15.6875174 11.1601462,15.7343921 11.2538961,15.8281421 L11.9218633,16.4961093 C12.0156132,16.5898592 12.0624879,16.6953277 12.0624879,16.8125148 C12.0624879,16.9297018 12.0156132,17.0234517 11.9218633,17.0937641 L10.1288988,18.7812601 L24.5780831,18.7812601 C24.6952701,18.7812601 24.7948796,18.8222758 24.8769105,18.9043066 C24.9589414,18.9863375 24.9999571,19.085947 24.9999571,19.2031341 L24.9999571,20.046882 C24.9999571,20.1640691 24.9589414,20.2636786 24.8769105,20.3457095 C24.7948796,20.4277403 24.6952701,20.468756 24.5780831,20.468756 L10.1288988,20.468756 L11.9218633,22.156252 C12.0156132,22.2265643 12.0624879,22.3203143 12.0624879,22.4375013 C12.0624879,22.5546884 12.0156132,22.6601569 11.9218633,22.7539068 L11.2538961,23.421874 C11.1601462,23.5156239 11.0546777,23.5624987 10.9374906,23.5624987 C10.8203036,23.5624987 10.7265536,23.5156239 10.6562413,23.421874 L7.14062466,19.9062574 Z" id="" fill="#358DCC" fill-rule="nonzero"></path>
            </g>
        </g>
    </g>
</svg>