<?xml version="1.0" encoding="UTF-8"?>
<svg width="30px" height="71px" viewBox="0 0 30 71" version="1.1" xmlns="http://www.w3.org/2000/svg" xmlns:xlink="http://www.w3.org/1999/xlink">
    <!-- Generator: Sketch 53.2 (72643) - https://sketchapp.com -->
    <title>Switcher_Hover</title>
    <desc>Created with Sketch.</desc>
    <g id="Latest" stroke="none" stroke-width="1" fill="none" fill-rule="evenodd">
        <g id="0.00-Empty-State" transform="translate(-392.000000, -495.000000)" fill-rule="nonzero">
            <g id="Switcher_Hover" transform="translate(392.000000, 495.000000)">
                <rect id="Rectangle" fill="#BEC5CF" transform="translate(16.039091, 35.271383) rotate(20.000000) translate(-16.039091, -35.271383) " x="15.5390906" y="-1.72861679" width="1" height="74"></rect>
                <g id="Group-6" transform="translate(0.000000, 22.000000)">
                    <rect id="Rectangle" stroke="#BEC5CF" fill="#F5F7FA" x="0.5" y="0.5" width="27" height="27" rx="13.5"></rect>
                    <path d="M18.1562234,14.0781367 C18.101536,14.1510534 18.0286194,14.1875115 17.9374739,14.1875115 C17.8463284,14.1875115 17.7642974,14.1510534 17.6913808,14.0781367 L17.1718507,13.5586067 C17.0989341,13.4856901 17.062476,13.403659 17.062476,13.3125136 C17.062476,13.2213681 17.0989341,13.1484515 17.1718507,13.0937641 L18.5663787,11.7812672 L7.32812422,11.7812672 C7.23697874,11.7812672 7.15950469,11.7493661 7.0957029,11.6855643 C7.0319011,11.6217625 7,11.5442885 7,11.453143 L7,10.7968946 C7,10.7057491 7.0319011,10.628275 7.0957029,10.5644732 C7.15950469,10.5006714 7.23697874,10.4687703 7.32812422,10.4687703 L18.5663787,10.4687703 L17.1718507,9.15627347 C17.0989341,9.1015861 17.062476,9.02866947 17.062476,8.93752399 C17.062476,8.84637851 17.0989341,8.76434746 17.1718507,8.69143083 L17.6913808,8.17190082 C17.7642974,8.09898418 17.8463284,8.06252608 17.9374739,8.06252608 C18.0286194,8.06252608 18.101536,8.09898418 18.1562234,8.17190082 L20.8905919,10.9062693 C20.9635085,10.9609567 20.9999666,11.0338733 20.9999666,11.1250188 C20.9999666,11.2161643 20.9635085,11.2890809 20.8905919,11.3437683 L18.1562234,14.0781367 Z M7.10937474,16.5937557 C7.03645811,16.5390684 7,16.4661517 7,16.3750063 C7,16.2838608 7.03645811,16.2109441 7.10937474,16.1562568 L9.84374322,13.4218883 C9.89843059,13.3489717 9.97134722,13.3125136 10.0624927,13.3125136 C10.1536382,13.3125136 10.2356692,13.3489717 10.3085859,13.4218883 L10.8281159,13.9414183 C10.9010325,14.0143349 10.9374906,14.096366 10.9374906,14.1875115 C10.9374906,14.278657 10.9010325,14.3515736 10.8281159,14.406261 L9.43358795,15.7187578 L20.6718424,15.7187578 C20.7629879,15.7187578 20.8404619,15.7506589 20.9042637,15.8144607 C20.9680655,15.8782625 20.9999666,15.9557366 20.9999666,16.046882 L20.9999666,16.7031305 C20.9999666,16.794276 20.9680655,16.87175 20.9042637,16.9355518 C20.8404619,16.9993536 20.7629879,17.0312547 20.6718424,17.0312547 L9.43358795,17.0312547 L10.8281159,18.3437516 C10.9010325,18.3984389 10.9374906,18.4713556 10.9374906,18.562501 C10.9374906,18.6536465 10.9010325,18.7356776 10.8281159,18.8085942 L10.3085859,19.3281242 C10.2356692,19.4010408 10.1536382,19.437499 10.0624927,19.437499 C9.97134722,19.437499 9.89843059,19.4010408 9.84374322,19.3281242 L7.10937474,16.5937557 Z" id="" fill="#062144"></path>
                </g>
            </g>
        </g>
    </g>
</svg>