<svg xmlns="http://www.w3.org/2000/svg" width="20" height="20" viewBox="0 0 20 20">
    <path fill="#78909C" fill-rule="nonzero" d="M12.125 10l7.75 7.75a.465.465 0 0 1 .125.344c0 .146-.042.26-.125.343l-1.438 1.438a.465.465 0 0 1-.343.125.465.465 0 0 1-.344-.125L10 12.125l-7.75 7.75a.465.465 0 0 1-.344.125.465.465 0 0 1-.343-.125L.125 18.437A.465.465 0 0 1 0 18.095c0-.146.042-.26.125-.344L7.875 10 .125 2.25A.465.465 0 0 1 0 1.906c0-.146.042-.26.125-.343L1.563.125A.465.465 0 0 1 1.905 0c.146 0 .26.042.344.125L10 7.875l7.75-7.75A.465.465 0 0 1 18.094 0c.146 0 .26.042.343.125l1.438 1.438a.465.465 0 0 1 .125.343c0 .146-.042.26-.125.344L12.125 10z"/>
</svg>
