<svg xmlns="http://www.w3.org/2000/svg" width="360" height="360" viewBox="0 0 360 360">
    <g fill="none" fill-rule="evenodd">
        <circle cx="180" cy="180" r="180" fill="#94B2D7" fill-rule="nonzero"/>
        <path fill="#062144" d="M224.25 161.25h-87.5v37.5h87.5v-37.5zm9.375-18.75c2.604 0 4.817.912 6.64 2.735 1.823 1.823 2.735 4.036 2.735 6.64v56.25c0 2.604-.912 4.818-2.735 6.64-1.823 1.824-4.036 2.735-6.64 2.735h-106.25c-2.604 0-4.818-.911-6.64-2.734-1.824-1.823-2.735-4.037-2.735-6.64v-56.25c0-2.605.911-4.818 2.734-6.641 1.823-1.823 4.037-2.735 6.64-2.735h106.25zm56.25 21.875c-4.428 0-8.139 1.498-11.133 4.492-2.995 2.995-4.492 6.706-4.492 11.133 0 4.427 1.497 8.138 4.492 11.133 2.994 2.995 6.705 4.492 11.132 4.492H293v40.625c0 5.208-1.822 9.635-5.468 13.281-3.646 3.646-8.073 5.469-13.281 5.469H86.75c-5.208 0-9.635-1.823-13.281-5.469C69.823 245.885 68 241.458 68 236.25v-40.625h3.125c4.427 0 8.138-1.497 11.133-4.492 2.995-2.995 4.492-6.706 4.492-11.133 0-4.427-1.497-8.138-4.492-11.133-2.995-2.994-6.706-4.492-11.133-4.492H68V123.75c0-5.208 1.823-9.635 5.469-13.28 3.646-3.647 8.073-5.47 13.281-5.47h187.5c5.208 0 9.635 1.823 13.28 5.47 3.647 3.645 5.47 8.072 5.47 13.28v40.625h-3.126zm-15.625-14.843V123.75H86.75v25.782c5.73 2.864 10.286 7.03 13.672 12.5C103.807 167.5 105.5 173.49 105.5 180s-1.693 12.5-5.078 17.969c-3.386 5.469-7.943 9.635-13.672 12.5v25.781h187.5v-25.781c-5.73-2.865-10.287-7.031-13.672-12.5C257.192 192.5 255.5 186.51 255.5 180c0-6.51 1.692-12.5 5.078-17.969 3.385-5.468 7.942-9.635 13.672-12.5z"/>
    </g>
</svg>
