<svg xmlns="http://www.w3.org/2000/svg" width="25" height="24" viewBox="0 0 25 24">
    <g fill="none" fill-rule="evenodd">
        <rect width="25" height="24" fill="#F6F7F8" rx="5"/>
        <path fill="#78909C" fill-rule="nonzero" d="M13.652 7v1.876h-2.99v8.323H8.198V8.876h-2.99V7z"/>
        <path fill="#78909C" fill-rule="nonzero" d="M13.996 13.447L11.56 9.94h2.173c.16 0 .279.02.354.06a.54.54 0 0 1 .2.199l1.35 2.149a1.58 1.58 0 0 1 .109-.245c.044-.08.092-.163.146-.252l.962-1.617a.606.606 0 0 1 .212-.227.566.566 0 0 1 .284-.067h2.07l-2.435 3.409 2.538 3.85H17.35a.618.618 0 0 1-.386-.112.982.982 0 0 1-.241-.266l-1.349-2.226a1.55 1.55 0 0 1-.088.224 1.91 1.91 0 0 1-.109.196l-1.108 1.806a.963.963 0 0 1-.234.262.569.569 0 0 1-.364.116h-2.013l2.538-3.752z"/>
    </g>
</svg>
